<?xml version="1.0" encoding="UTF-8" standalone="no"?>
<!DOCTYPE svg PUBLIC "-//W3C//DTD SVG 1.1//EN"
 "http://www.w3.org/Graphics/SVG/1.1/DTD/svg11.dtd">
<!-- Generated by graphviz version 11.0.0 (0)
 -->
<!-- Title: diag Pages: 1 -->
<svg width="1346pt" height="1127pt"
 viewBox="0.00 0.00 1346.48 1126.83" xmlns="http://www.w3.org/2000/svg" xmlns:xlink="http://www.w3.org/1999/xlink">
<g id="graph0" class="graph" transform="scale(1 1) rotate(0) translate(4 1122.83)">
<title>diag</title>
<polygon fill="white" stroke="none" points="-4,4 -4,-1122.83 1342.48,-1122.83 1342.48,4 -4,4"/>
<!-- O que são linguagens de programação?\n4 / 4 -->
<g id="node1" class="node">
<title>O que são linguagens de programação?\n4 / 4</title>
<path fill="pink" stroke="green" stroke-width="3" d="M674.6,-1046.83C674.6,-1046.83 402.1,-1046.83 402.1,-1046.83 396.1,-1046.83 390.1,-1040.83 390.1,-1034.83 390.1,-1034.83 390.1,-1016.33 390.1,-1016.33 390.1,-1010.33 396.1,-1004.33 402.1,-1004.33 402.1,-1004.33 674.6,-1004.33 674.6,-1004.33 680.6,-1004.33 686.6,-1010.33 686.6,-1016.33 686.6,-1016.33 686.6,-1034.83 686.6,-1034.83 686.6,-1040.83 680.6,-1046.83 674.6,-1046.83"/>
<text text-anchor="middle" x="538.35" y="-1029.53" font-family="Times,serif" font-size="14.00">O que são linguagens de programação?</text>
<text text-anchor="middle" x="538.35" y="-1012.28" font-family="Times,serif" font-size="14.00">4 / 4</text>
</g>
<!-- Uso do bash\n0 / 1 -->
<g id="node2" class="node">
<title>Uso do bash\n0 / 1</title>
<ellipse fill="lightblue" stroke="red" stroke-width="3" cx="212.35" cy="-938.28" rx="73.36" ry="30.05"/>
<text text-anchor="middle" x="212.35" y="-942.23" font-family="Times,serif" font-size="14.00">Uso do bash</text>
<text text-anchor="middle" x="212.35" y="-924.98" font-family="Times,serif" font-size="14.00">0 / 1</text>
</g>
<!-- O que são linguagens de programação?\n4 / 4&#45;&gt;Uso do bash\n0 / 1 -->
<g id="edge1" class="edge">
<title>O que são linguagens de programação?\n4 / 4&#45;&gt;Uso do bash\n0 / 1</title>
<path fill="none" stroke="black" d="M433.05,-1002.84C390.07,-993.28 340.06,-981.29 295.35,-968.33 289.67,-966.69 283.81,-964.87 277.95,-962.98"/>
<polygon fill="black" stroke="black" points="279.47,-959.8 268.88,-959.98 277.28,-966.44 279.47,-959.8"/>
</g>
<!-- Makefile\n4 / 4 -->
<g id="node4" class="node">
<title>Makefile\n4 / 4</title>
<ellipse fill="lightblue" stroke="green" stroke-width="3" cx="358.35" cy="-938.28" rx="54.27" ry="30.05"/>
<text text-anchor="middle" x="358.35" y="-942.23" font-family="Times,serif" font-size="14.00">Makefile</text>
<text text-anchor="middle" x="358.35" y="-924.98" font-family="Times,serif" font-size="14.00">4 / 4</text>
</g>
<!-- O que são linguagens de programação?\n4 / 4&#45;&gt;Makefile\n4 / 4 -->
<g id="edge3" class="edge">
<title>O que são linguagens de programação?\n4 / 4&#45;&gt;Makefile\n4 / 4</title>
<path fill="none" stroke="black" d="M492.47,-1002.84C467.47,-990.99 436.45,-976.29 410.54,-964.01"/>
<polygon fill="black" stroke="black" points="412.06,-960.86 401.52,-959.74 409.06,-967.18 412.06,-960.86"/>
</g>
<!-- TKO &#45; Ferramenta de Testes\n1 / 1 -->
<g id="node7" class="node">
<title>TKO &#45; Ferramenta de Testes\n1 / 1</title>
<path fill="lightblue" stroke="green" stroke-width="3" d="M634.1,-959.53C634.1,-959.53 442.6,-959.53 442.6,-959.53 436.6,-959.53 430.6,-953.53 430.6,-947.53 430.6,-947.53 430.6,-929.03 430.6,-929.03 430.6,-923.03 436.6,-917.03 442.6,-917.03 442.6,-917.03 634.1,-917.03 634.1,-917.03 640.1,-917.03 646.1,-923.03 646.1,-929.03 646.1,-929.03 646.1,-947.53 646.1,-947.53 646.1,-953.53 640.1,-959.53 634.1,-959.53"/>
<text text-anchor="middle" x="538.35" y="-942.23" font-family="Times,serif" font-size="14.00">TKO &#45; Ferramenta de Testes</text>
<text text-anchor="middle" x="538.35" y="-924.98" font-family="Times,serif" font-size="14.00">1 / 1</text>
</g>
<!-- O que são linguagens de programação?\n4 / 4&#45;&gt;TKO &#45; Ferramenta de Testes\n1 / 1 -->
<g id="edge5" class="edge">
<title>O que são linguagens de programação?\n4 / 4&#45;&gt;TKO &#45; Ferramenta de Testes\n1 / 1</title>
<path fill="none" stroke="black" d="M538.35,-1003.06C538.35,-993.66 538.35,-982.44 538.35,-972.04"/>
<polygon fill="black" stroke="black" points="541.85,-972.31 538.35,-962.31 534.85,-972.31 541.85,-972.31"/>
</g>
<!-- Primeiro código\n6 / 6 -->
<g id="node9" class="node">
<title>Primeiro código\n6 / 6</title>
<path fill="pink" stroke="green" stroke-width="3" d="M780.98,-959.53C780.98,-959.53 675.73,-959.53 675.73,-959.53 669.73,-959.53 663.73,-953.53 663.73,-947.53 663.73,-947.53 663.73,-929.03 663.73,-929.03 663.73,-923.03 669.73,-917.03 675.73,-917.03 675.73,-917.03 780.98,-917.03 780.98,-917.03 786.98,-917.03 792.98,-923.03 792.98,-929.03 792.98,-929.03 792.98,-947.53 792.98,-947.53 792.98,-953.53 786.98,-959.53 780.98,-959.53"/>
<text text-anchor="middle" x="728.35" y="-942.23" font-family="Times,serif" font-size="14.00">Primeiro código</text>
<text text-anchor="middle" x="728.35" y="-924.98" font-family="Times,serif" font-size="14.00">6 / 6</text>
</g>
<!-- O que são linguagens de programação?\n4 / 4&#45;&gt;Primeiro código\n6 / 6 -->
<g id="edge7" class="edge">
<title>O que são linguagens de programação?\n4 / 4&#45;&gt;Primeiro código\n6 / 6</title>
<path fill="none" stroke="black" d="M586.79,-1002.84C612.03,-991.51 643.09,-977.56 669.68,-965.62"/>
<polygon fill="black" stroke="black" points="670.94,-968.9 678.62,-961.61 668.07,-962.51 670.94,-968.9"/>
</g>
<!-- Debugando\n0 / 1 -->
<g id="node23" class="node">
<title>Debugando\n0 / 1</title>
<ellipse fill="cyan" stroke="red" stroke-width="3" cx="879.35" cy="-938.28" rx="68.59" ry="30.05"/>
<text text-anchor="middle" x="879.35" y="-942.23" font-family="Times,serif" font-size="14.00">Debugando</text>
<text text-anchor="middle" x="879.35" y="-924.98" font-family="Times,serif" font-size="14.00">0 / 1</text>
</g>
<!-- O que são linguagens de programação?\n4 / 4&#45;&gt;Debugando\n0 / 1 -->
<g id="edge23" class="edge">
<title>O que são linguagens de programação?\n4 / 4&#45;&gt;Debugando\n0 / 1</title>
<path fill="none" stroke="black" d="M658.9,-1002.88C704.26,-993.68 756.04,-981.92 802.35,-968.33 807.4,-966.85 812.59,-965.2 817.77,-963.45"/>
<polygon fill="black" stroke="black" points="818.64,-966.85 826.93,-960.25 816.34,-960.24 818.64,-966.85"/>
</g>
<!-- Configuração do Ambiente\n2 / 2 -->
<g id="node3" class="node">
<title>Configuração do Ambiente\n2 / 2</title>
<ellipse fill="lightblue" stroke="green" stroke-width="3" cx="212.35" cy="-842.18" rx="144.43" ry="30.05"/>
<text text-anchor="middle" x="212.35" y="-846.13" font-family="Times,serif" font-size="14.00">Configuração do Ambiente</text>
<text text-anchor="middle" x="212.35" y="-828.88" font-family="Times,serif" font-size="14.00">2 / 2</text>
</g>
<!-- Uso do bash\n0 / 1&#45;&gt;Configuração do Ambiente\n2 / 2 -->
<g id="edge2" class="edge">
<title>Uso do bash\n0 / 1&#45;&gt;Configuração do Ambiente\n2 / 2</title>
<path fill="none" stroke="black" d="M212.35,-906.99C212.35,-899.94 212.35,-892.31 212.35,-884.86"/>
<polygon fill="black" stroke="black" points="215.85,-884.93 212.35,-874.93 208.85,-884.93 215.85,-884.93"/>
</g>
<!-- While\n0 / 4 -->
<g id="node5" class="node">
<title>While\n0 / 4</title>
<path fill="yellow" stroke="red" stroke-width="3" d="M593.6,-601.52C593.6,-601.52 561.1,-601.52 561.1,-601.52 555.1,-601.52 549.1,-595.52 549.1,-589.52 549.1,-589.52 549.1,-571.02 549.1,-571.02 549.1,-565.02 555.1,-559.02 561.1,-559.02 561.1,-559.02 593.6,-559.02 593.6,-559.02 599.6,-559.02 605.6,-565.02 605.6,-571.02 605.6,-571.02 605.6,-589.52 605.6,-589.52 605.6,-595.52 599.6,-601.52 593.6,-601.52"/>
<text text-anchor="middle" x="577.35" y="-584.22" font-family="Times,serif" font-size="14.00">While</text>
<text text-anchor="middle" x="577.35" y="-566.97" font-family="Times,serif" font-size="14.00">0 / 4</text>
</g>
<!-- Macros: include, define, if, ifdef, endif\n0 / 2 -->
<g id="node6" class="node">
<title>Macros: include, define, if, ifdef, endif\n0 / 2</title>
<ellipse fill="lightblue" stroke="red" stroke-width="3" cx="700.35" cy="-492.97" rx="201.7" ry="30.05"/>
<text text-anchor="middle" x="700.35" y="-496.92" font-family="Times,serif" font-size="14.00">Macros: include, define, if, ifdef, endif</text>
<text text-anchor="middle" x="700.35" y="-479.67" font-family="Times,serif" font-size="14.00">0 / 2</text>
</g>
<!-- While\n0 / 4&#45;&gt;Macros: include, define, if, ifdef, endif\n0 / 2 -->
<g id="edge4" class="edge">
<title>While\n0 / 4&#45;&gt;Macros: include, define, if, ifdef, endif\n0 / 2</title>
<path fill="none" stroke="black" d="M606.82,-558.84C619.29,-550.19 634.21,-539.84 648.43,-529.98"/>
<polygon fill="black" stroke="black" points="650.17,-533.03 656.39,-524.46 646.18,-527.28 650.17,-533.03"/>
</g>
<!-- Tratamento de erros de entrada fflush\n0 / 1 -->
<g id="node20" class="node">
<title>Tratamento de erros de entrada fflush\n0 / 1</title>
<ellipse fill="lightgreen" stroke="red" stroke-width="3" cx="204.35" cy="-492.97" rx="204.35" ry="30.05"/>
<text text-anchor="middle" x="204.35" y="-496.92" font-family="Times,serif" font-size="14.00">Tratamento de erros de entrada fflush</text>
<text text-anchor="middle" x="204.35" y="-479.67" font-family="Times,serif" font-size="14.00">0 / 1</text>
</g>
<!-- While\n0 / 4&#45;&gt;Tratamento de erros de entrada fflush\n0 / 1 -->
<g id="edge18" class="edge">
<title>While\n0 / 4&#45;&gt;Tratamento de erros de entrada fflush\n0 / 1</title>
<path fill="none" stroke="black" d="M547.77,-572.51C500.38,-561.67 404.79,-539.81 326.47,-521.9"/>
<polygon fill="black" stroke="black" points="327.54,-518.55 317.02,-519.73 325.98,-525.37 327.54,-518.55"/>
</g>
<!-- for\n0 / 8 -->
<g id="node28" class="node">
<title>for\n0 / 8</title>
<path fill="yellow" stroke="red" stroke-width="3" d="M468.35,-514.22C468.35,-514.22 438.35,-514.22 438.35,-514.22 432.35,-514.22 426.35,-508.22 426.35,-502.22 426.35,-502.22 426.35,-483.72 426.35,-483.72 426.35,-477.72 432.35,-471.72 438.35,-471.72 438.35,-471.72 468.35,-471.72 468.35,-471.72 474.35,-471.72 480.35,-477.72 480.35,-483.72 480.35,-483.72 480.35,-502.22 480.35,-502.22 480.35,-508.22 474.35,-514.22 468.35,-514.22"/>
<text text-anchor="middle" x="453.35" y="-496.92" font-family="Times,serif" font-size="14.00">for</text>
<text text-anchor="middle" x="453.35" y="-479.67" font-family="Times,serif" font-size="14.00">0 / 8</text>
</g>
<!-- While\n0 / 4&#45;&gt;for\n0 / 8 -->
<g id="edge29" class="edge">
<title>While\n0 / 4&#45;&gt;for\n0 / 8</title>
<path fill="none" stroke="black" d="M547.89,-561.56C530.53,-550.86 508.34,-536.68 489.35,-523.02 489.05,-522.8 488.74,-522.58 488.43,-522.36"/>
<polygon fill="black" stroke="black" points="490.74,-519.71 480.65,-516.48 486.52,-525.3 490.74,-519.71"/>
</g>
<!-- Operações Básicas\n0 / 3 -->
<g id="node16" class="node">
<title>Operações Básicas\n0 / 3</title>
<path fill="pink" stroke="red" stroke-width="3" d="M552.1,-863.43C552.1,-863.43 426.6,-863.43 426.6,-863.43 420.6,-863.43 414.6,-857.43 414.6,-851.43 414.6,-851.43 414.6,-832.93 414.6,-832.93 414.6,-826.93 420.6,-820.93 426.6,-820.93 426.6,-820.93 552.1,-820.93 552.1,-820.93 558.1,-820.93 564.1,-826.93 564.1,-832.93 564.1,-832.93 564.1,-851.43 564.1,-851.43 564.1,-857.43 558.1,-863.43 552.1,-863.43"/>
<text text-anchor="middle" x="489.35" y="-846.13" font-family="Times,serif" font-size="14.00">Operações Básicas</text>
<text text-anchor="middle" x="489.35" y="-828.88" font-family="Times,serif" font-size="14.00">0 / 3</text>
</g>
<!-- TKO &#45; Ferramenta de Testes\n1 / 1&#45;&gt;Operações Básicas\n0 / 3 -->
<g id="edge14" class="edge">
<title>TKO &#45; Ferramenta de Testes\n1 / 1&#45;&gt;Operações Básicas\n0 / 3</title>
<path fill="none" stroke="black" d="M527.24,-915.93C520.89,-903.74 512.82,-888.24 505.76,-874.68"/>
<polygon fill="black" stroke="black" points="509.02,-873.37 501.3,-866.11 502.81,-876.6 509.02,-873.37"/>
</g>
<!-- Início -->
<g id="node8" class="node">
<title>Início</title>
<path fill="lightgrey" stroke="black" d="M553.85,-1118.83C553.85,-1118.83 522.85,-1118.83 522.85,-1118.83 516.85,-1118.83 510.85,-1112.83 510.85,-1106.83 510.85,-1106.83 510.85,-1094.83 510.85,-1094.83 510.85,-1088.83 516.85,-1082.83 522.85,-1082.83 522.85,-1082.83 553.85,-1082.83 553.85,-1082.83 559.85,-1082.83 565.85,-1088.83 565.85,-1094.83 565.85,-1094.83 565.85,-1106.83 565.85,-1106.83 565.85,-1112.83 559.85,-1118.83 553.85,-1118.83"/>
<text text-anchor="middle" x="538.35" y="-1096.16" font-family="Times,serif" font-size="14.00">Início</text>
</g>
<!-- Início&#45;&gt;O que são linguagens de programação?\n4 / 4 -->
<g id="edge6" class="edge">
<title>Início&#45;&gt;O que são linguagens de programação?\n4 / 4</title>
<path fill="none" stroke="black" d="M538.35,-1082.47C538.35,-1075.59 538.35,-1067.45 538.35,-1059.53"/>
<polygon fill="black" stroke="black" points="541.85,-1059.79 538.35,-1049.79 534.85,-1059.79 541.85,-1059.79"/>
</g>
<!-- Clean Code &#45; Estilo\n0 / 1 -->
<g id="node12" class="node">
<title>Clean Code &#45; Estilo\n0 / 1</title>
<path fill="pink" stroke="red" stroke-width="3" d="M1032.23,-767.32C1032.23,-767.32 904.48,-767.32 904.48,-767.32 898.48,-767.32 892.48,-761.32 892.48,-755.32 892.48,-755.32 892.48,-736.82 892.48,-736.82 892.48,-730.82 898.48,-724.82 904.48,-724.82 904.48,-724.82 1032.23,-724.82 1032.23,-724.82 1038.23,-724.82 1044.23,-730.82 1044.23,-736.82 1044.23,-736.82 1044.23,-755.32 1044.23,-755.32 1044.23,-761.32 1038.23,-767.32 1032.23,-767.32"/>
<text text-anchor="middle" x="968.35" y="-750.02" font-family="Times,serif" font-size="14.00">Clean Code &#45; Estilo</text>
<text text-anchor="middle" x="968.35" y="-732.77" font-family="Times,serif" font-size="14.00">0 / 1</text>
</g>
<!-- Primeiro código\n6 / 6&#45;&gt;Clean Code &#45; Estilo\n0 / 1 -->
<g id="edge9" class="edge">
<title>Primeiro código\n6 / 6&#45;&gt;Clean Code &#45; Estilo\n0 / 1</title>
<path fill="none" stroke="black" d="M778.49,-915.55C786.06,-912.79 793.84,-910.24 801.35,-908.23 855.15,-893.83 1012.91,-914.34 1049.35,-872.23 1066.83,-852.03 1060.9,-836.21 1049.35,-812.12 1042.39,-797.6 1030.42,-785.29 1017.8,-775.42"/>
<polygon fill="black" stroke="black" points="1019.91,-772.63 1009.77,-769.56 1015.78,-778.28 1019.91,-772.63"/>
</g>
<!-- Clean Code &#45; Indentação\n0 / 1 -->
<g id="node13" class="node">
<title>Clean Code &#45; Indentação\n0 / 1</title>
<path fill="pink" stroke="red" stroke-width="3" d="M1239.98,-767.32C1239.98,-767.32 1074.73,-767.32 1074.73,-767.32 1068.73,-767.32 1062.73,-761.32 1062.73,-755.32 1062.73,-755.32 1062.73,-736.82 1062.73,-736.82 1062.73,-730.82 1068.73,-724.82 1074.73,-724.82 1074.73,-724.82 1239.98,-724.82 1239.98,-724.82 1245.98,-724.82 1251.98,-730.82 1251.98,-736.82 1251.98,-736.82 1251.98,-755.32 1251.98,-755.32 1251.98,-761.32 1245.98,-767.32 1239.98,-767.32"/>
<text text-anchor="middle" x="1157.35" y="-750.02" font-family="Times,serif" font-size="14.00">Clean Code &#45; Indentação</text>
<text text-anchor="middle" x="1157.35" y="-732.77" font-family="Times,serif" font-size="14.00">0 / 1</text>
</g>
<!-- Primeiro código\n6 / 6&#45;&gt;Clean Code &#45; Indentação\n0 / 1 -->
<g id="edge10" class="edge">
<title>Primeiro código\n6 / 6&#45;&gt;Clean Code &#45; Indentação\n0 / 1</title>
<path fill="none" stroke="black" d="M778.08,-915.63C785.77,-912.82 793.7,-910.23 801.35,-908.23 917.18,-877.86 965.86,-934.13 1068.35,-872.23 1104.33,-850.5 1129.75,-808.07 1143.97,-778.68"/>
<polygon fill="black" stroke="black" points="1147.02,-780.42 1148.06,-769.87 1140.67,-777.47 1147.02,-780.42"/>
</g>
<!-- Manipulando tipos\n0 / 1 -->
<g id="node14" class="node">
<title>Manipulando tipos\n0 / 1</title>
<ellipse fill="pink" stroke="red" stroke-width="3" cx="687.35" cy="-842.18" rx="105.18" ry="30.05"/>
<text text-anchor="middle" x="687.35" y="-846.13" font-family="Times,serif" font-size="14.00">Manipulando tipos</text>
<text text-anchor="middle" x="687.35" y="-828.88" font-family="Times,serif" font-size="14.00">0 / 1</text>
</g>
<!-- Primeiro código\n6 / 6&#45;&gt;Manipulando tipos\n0 / 1 -->
<g id="edge11" class="edge">
<title>Primeiro código\n6 / 6&#45;&gt;Manipulando tipos\n0 / 1</title>
<path fill="none" stroke="black" d="M719.05,-915.93C714.9,-906.39 709.86,-894.83 705.03,-883.75"/>
<polygon fill="black" stroke="black" points="708.31,-882.52 701.11,-874.75 701.9,-885.32 708.31,-882.52"/>
</g>
<!-- Casting e Conversão\n0 / 3 -->
<g id="node15" class="node">
<title>Casting e Conversão\n0 / 3</title>
<ellipse fill="pink" stroke="red" stroke-width="3" cx="925.35" cy="-842.18" rx="115.26" ry="30.05"/>
<text text-anchor="middle" x="925.35" y="-846.13" font-family="Times,serif" font-size="14.00">Casting e Conversão</text>
<text text-anchor="middle" x="925.35" y="-828.88" font-family="Times,serif" font-size="14.00">0 / 3</text>
</g>
<!-- Primeiro código\n6 / 6&#45;&gt;Casting e Conversão\n0 / 3 -->
<g id="edge12" class="edge">
<title>Primeiro código\n6 / 6&#45;&gt;Casting e Conversão\n0 / 3</title>
<path fill="none" stroke="black" d="M773.55,-915.69C799.04,-903.51 831.36,-888.08 859.61,-874.58"/>
<polygon fill="black" stroke="black" points="860.94,-877.83 868.45,-870.36 857.92,-871.51 860.94,-877.83"/>
</g>
<!-- Primeiro código\n6 / 6&#45;&gt;Operações Básicas\n0 / 3 -->
<g id="edge13" class="edge">
<title>Primeiro código\n6 / 6&#45;&gt;Operações Básicas\n0 / 3</title>
<path fill="none" stroke="black" d="M674.15,-915.67C667.82,-913.16 661.44,-910.63 655.35,-908.23 622.39,-895.21 585.71,-880.82 555.22,-868.9"/>
<polygon fill="black" stroke="black" points="556.71,-865.72 546.13,-865.34 554.16,-872.24 556.71,-865.72"/>
</g>
<!-- Entrada e Saída &#45; puts, printf, scanf\n0 / 4 -->
<g id="node10" class="node">
<title>Entrada e Saída &#45; puts, printf, scanf\n0 / 4</title>
<path fill="lightgreen" stroke="red" stroke-width="3" d="M595.85,-767.32C595.85,-767.32 348.85,-767.32 348.85,-767.32 342.85,-767.32 336.85,-761.32 336.85,-755.32 336.85,-755.32 336.85,-736.82 336.85,-736.82 336.85,-730.82 342.85,-724.82 348.85,-724.82 348.85,-724.82 595.85,-724.82 595.85,-724.82 601.85,-724.82 607.85,-730.82 607.85,-736.82 607.85,-736.82 607.85,-755.32 607.85,-755.32 607.85,-761.32 601.85,-767.32 595.85,-767.32"/>
<text text-anchor="middle" x="472.35" y="-750.02" font-family="Times,serif" font-size="14.00">Entrada e Saída &#45; puts, printf, scanf</text>
<text text-anchor="middle" x="472.35" y="-732.77" font-family="Times,serif" font-size="14.00">0 / 4</text>
</g>
<!-- Strings em C: Array de `char`\n0 / 1 -->
<g id="node11" class="node">
<title>Strings em C: Array de `char`\n0 / 1</title>
<path fill="pink" stroke="red" stroke-width="3" d="M575.23,-680.02C575.23,-680.02 369.48,-680.02 369.48,-680.02 363.48,-680.02 357.48,-674.02 357.48,-668.02 357.48,-668.02 357.48,-649.52 357.48,-649.52 357.48,-643.52 363.48,-637.52 369.48,-637.52 369.48,-637.52 575.23,-637.52 575.23,-637.52 581.23,-637.52 587.23,-643.52 587.23,-649.52 587.23,-649.52 587.23,-668.02 587.23,-668.02 587.23,-674.02 581.23,-680.02 575.23,-680.02"/>
<text text-anchor="middle" x="472.35" y="-662.72" font-family="Times,serif" font-size="14.00">Strings em C: Array de `char`</text>
<text text-anchor="middle" x="472.35" y="-645.47" font-family="Times,serif" font-size="14.00">0 / 1</text>
</g>
<!-- Entrada e Saída &#45; puts, printf, scanf\n0 / 4&#45;&gt;Strings em C: Array de `char`\n0 / 1 -->
<g id="edge8" class="edge">
<title>Entrada e Saída &#45; puts, printf, scanf\n0 / 4&#45;&gt;Strings em C: Array de `char`\n0 / 1</title>
<path fill="none" stroke="black" d="M472.35,-723.55C472.35,-714.15 472.35,-702.93 472.35,-692.53"/>
<polygon fill="black" stroke="black" points="475.85,-692.8 472.35,-682.8 468.85,-692.8 475.85,-692.8"/>
</g>
<!-- Seleção Básica\n0 / 10 -->
<g id="node22" class="node">
<title>Seleção Básica\n0 / 10</title>
<path fill="cyan" stroke="yellow" stroke-width="3" d="M1017.23,-680.02C1017.23,-680.02 919.48,-680.02 919.48,-680.02 913.48,-680.02 907.48,-674.02 907.48,-668.02 907.48,-668.02 907.48,-649.52 907.48,-649.52 907.48,-643.52 913.48,-637.52 919.48,-637.52 919.48,-637.52 1017.23,-637.52 1017.23,-637.52 1023.23,-637.52 1029.23,-643.52 1029.23,-649.52 1029.23,-649.52 1029.23,-668.02 1029.23,-668.02 1029.23,-674.02 1023.23,-680.02 1017.23,-680.02"/>
<text text-anchor="middle" x="968.35" y="-662.72" font-family="Times,serif" font-size="14.00">Seleção Básica</text>
<text text-anchor="middle" x="968.35" y="-645.47" font-family="Times,serif" font-size="14.00">0 / 10</text>
</g>
<!-- Entrada e Saída &#45; puts, printf, scanf\n0 / 4&#45;&gt;Seleção Básica\n0 / 10 -->
<g id="edge20" class="edge">
<title>Entrada e Saída &#45; puts, printf, scanf\n0 / 4&#45;&gt;Seleção Básica\n0 / 10</title>
<path fill="none" stroke="black" d="M578.38,-723.34C591.49,-720.79 604.72,-718.3 617.35,-716.02 713.06,-698.77 823.92,-681.45 895.03,-670.67"/>
<polygon fill="black" stroke="black" points="895.23,-674.18 904.6,-669.23 894.19,-667.26 895.23,-674.18"/>
</g>
<!-- Clean Code &#45; Estilo\n0 / 1&#45;&gt;Seleção Básica\n0 / 10 -->
<g id="edge21" class="edge">
<title>Clean Code &#45; Estilo\n0 / 1&#45;&gt;Seleção Básica\n0 / 10</title>
<path fill="none" stroke="black" d="M968.35,-723.55C968.35,-714.15 968.35,-702.93 968.35,-692.53"/>
<polygon fill="black" stroke="black" points="971.85,-692.8 968.35,-682.8 964.85,-692.8 971.85,-692.8"/>
</g>
<!-- Clean Code &#45; Indentação\n0 / 1&#45;&gt;Seleção Básica\n0 / 10 -->
<g id="edge22" class="edge">
<title>Clean Code &#45; Indentação\n0 / 1&#45;&gt;Seleção Básica\n0 / 10</title>
<path fill="none" stroke="black" d="M1109.17,-723.33C1084.07,-712 1053.17,-698.05 1026.72,-686.11"/>
<polygon fill="black" stroke="black" points="1028.38,-683.02 1017.83,-682.1 1025.5,-689.4 1028.38,-683.02"/>
</g>
<!-- Operações Básicas\n0 / 3&#45;&gt;Entrada e Saída &#45; puts, printf, scanf\n0 / 4 -->
<g id="edge16" class="edge">
<title>Operações Básicas\n0 / 3&#45;&gt;Entrada e Saída &#45; puts, printf, scanf\n0 / 4</title>
<path fill="none" stroke="black" d="M485.5,-819.82C483.36,-808 480.66,-793.04 478.26,-779.77"/>
<polygon fill="black" stroke="black" points="481.75,-779.38 476.52,-770.16 474.86,-780.62 481.75,-779.38"/>
</g>
<!-- Biblioteca matemática\n0 / 2 -->
<g id="node17" class="node">
<title>Biblioteca matemática\n0 / 2</title>
<ellipse fill="pink" stroke="red" stroke-width="3" cx="750.35" cy="-746.07" rx="124.27" ry="30.05"/>
<text text-anchor="middle" x="750.35" y="-750.02" font-family="Times,serif" font-size="14.00">Biblioteca matemática</text>
<text text-anchor="middle" x="750.35" y="-732.77" font-family="Times,serif" font-size="14.00">0 / 2</text>
</g>
<!-- Operações Básicas\n0 / 3&#45;&gt;Biblioteca matemática\n0 / 2 -->
<g id="edge15" class="edge">
<title>Operações Básicas\n0 / 3&#45;&gt;Biblioteca matemática\n0 / 2</title>
<path fill="none" stroke="black" d="M549.56,-819.47C585.34,-806.57 631.16,-790.05 670,-776.04"/>
<polygon fill="black" stroke="black" points="671.11,-779.36 679.33,-772.68 668.74,-772.78 671.11,-779.36"/>
</g>
<!-- Strings I\n0 / 5 -->
<g id="node18" class="node">
<title>Strings I\n0 / 5</title>
<path fill="tomato" stroke="red" stroke-width="3" d="M694.48,-243.51C694.48,-243.51 640.23,-243.51 640.23,-243.51 634.23,-243.51 628.23,-237.51 628.23,-231.51 628.23,-231.51 628.23,-213.01 628.23,-213.01 628.23,-207.01 634.23,-201.01 640.23,-201.01 640.23,-201.01 694.48,-201.01 694.48,-201.01 700.48,-201.01 706.48,-207.01 706.48,-213.01 706.48,-213.01 706.48,-231.51 706.48,-231.51 706.48,-237.51 700.48,-243.51 694.48,-243.51"/>
<text text-anchor="middle" x="667.35" y="-226.21" font-family="Times,serif" font-size="14.00">Strings I</text>
<text text-anchor="middle" x="667.35" y="-208.96" font-family="Times,serif" font-size="14.00">0 / 5</text>
</g>
<!-- Manipulando strings com `sprintf` e `sscanf`\n0 / 3 -->
<g id="node19" class="node">
<title>Manipulando strings com `sprintf` e `sscanf`\n0 / 3</title>
<ellipse fill="lightgreen" stroke="red" stroke-width="3" cx="744.35" cy="-126.16" rx="239.89" ry="30.05"/>
<text text-anchor="middle" x="744.35" y="-130.11" font-family="Times,serif" font-size="14.00">Manipulando strings com `sprintf` e `sscanf`</text>
<text text-anchor="middle" x="744.35" y="-112.86" font-family="Times,serif" font-size="14.00">0 / 3</text>
</g>
<!-- Strings I\n0 / 5&#45;&gt;Manipulando strings com `sprintf` e `sscanf`\n0 / 3 -->
<g id="edge17" class="edge">
<title>Strings I\n0 / 5&#45;&gt;Manipulando strings com `sprintf` e `sscanf`\n0 / 3</title>
<path fill="none" stroke="black" d="M684.83,-199.91C693.03,-189.88 703.07,-177.61 712.55,-166.02"/>
<polygon fill="black" stroke="black" points="715.07,-168.47 718.69,-158.52 709.65,-164.04 715.07,-168.47"/>
</g>
<!-- IO: argc e argv\n0 / 1 -->
<g id="node21" class="node">
<title>IO: argc e argv\n0 / 1</title>
<ellipse fill="lightgreen" stroke="red" stroke-width="3" cx="399.35" cy="-126.16" rx="86.62" ry="30.05"/>
<text text-anchor="middle" x="399.35" y="-130.11" font-family="Times,serif" font-size="14.00">IO: argc e argv</text>
<text text-anchor="middle" x="399.35" y="-112.86" font-family="Times,serif" font-size="14.00">0 / 1</text>
</g>
<!-- Strings I\n0 / 5&#45;&gt;IO: argc e argv\n0 / 1 -->
<g id="edge19" class="edge">
<title>Strings I\n0 / 5&#45;&gt;IO: argc e argv\n0 / 1</title>
<path fill="none" stroke="black" d="M626.94,-207.07C585.87,-192.65 521.36,-170 471.5,-152.49"/>
<polygon fill="black" stroke="black" points="472.8,-149.23 462.2,-149.22 470.48,-155.84 472.8,-149.23"/>
</g>
<!-- Strings II\n0 / 3 -->
<g id="node33" class="node">
<title>Strings II\n0 / 3</title>
<ellipse fill="tomato" stroke="red" stroke-width="3" cx="1151.35" cy="-126.16" rx="59.04" ry="30.05"/>
<text text-anchor="middle" x="1151.35" y="-130.11" font-family="Times,serif" font-size="14.00">Strings II</text>
<text text-anchor="middle" x="1151.35" y="-112.86" font-family="Times,serif" font-size="14.00">0 / 3</text>
</g>
<!-- Strings I\n0 / 5&#45;&gt;Strings II\n0 / 3 -->
<g id="edge36" class="edge">
<title>Strings I\n0 / 5&#45;&gt;Strings II\n0 / 3</title>
<path fill="none" stroke="black" d="M698.98,-199.64C704.27,-196.76 709.84,-194.14 715.35,-192.21 832.95,-151.07 870.27,-175.48 993.35,-156.21 1023.26,-151.53 1056.21,-145.59 1084.25,-140.31"/>
<polygon fill="black" stroke="black" points="1084.88,-143.75 1094.05,-138.45 1083.57,-136.87 1084.88,-143.75"/>
</g>
<!-- Seleção Básica\n0 / 10&#45;&gt;While\n0 / 4 -->
<g id="edge28" class="edge">
<title>Seleção Básica\n0 / 10&#45;&gt;While\n0 / 4</title>
<path fill="none" stroke="black" d="M906.4,-645.65C825.59,-629.84 686.46,-602.62 617.92,-589.21"/>
<polygon fill="black" stroke="black" points="618.73,-585.8 608.24,-587.31 617.39,-592.67 618.73,-585.8"/>
</g>
<!-- Funções I\n0 / 5 -->
<g id="node24" class="node">
<title>Funções I\n0 / 5</title>
<path fill="gold" stroke="red" stroke-width="3" d="M998.85,-601.52C998.85,-601.52 937.85,-601.52 937.85,-601.52 931.85,-601.52 925.85,-595.52 925.85,-589.52 925.85,-589.52 925.85,-571.02 925.85,-571.02 925.85,-565.02 931.85,-559.02 937.85,-559.02 937.85,-559.02 998.85,-559.02 998.85,-559.02 1004.85,-559.02 1010.85,-565.02 1010.85,-571.02 1010.85,-571.02 1010.85,-589.52 1010.85,-589.52 1010.85,-595.52 1004.85,-601.52 998.85,-601.52"/>
<text text-anchor="middle" x="968.35" y="-584.22" font-family="Times,serif" font-size="14.00">Funções I</text>
<text text-anchor="middle" x="968.35" y="-566.97" font-family="Times,serif" font-size="14.00">0 / 5</text>
</g>
<!-- Seleção Básica\n0 / 10&#45;&gt;Funções I\n0 / 5 -->
<g id="edge26" class="edge">
<title>Seleção Básica\n0 / 10&#45;&gt;Funções I\n0 / 5</title>
<path fill="none" stroke="black" d="M968.35,-636.05C968.35,-629.21 968.35,-621.5 968.35,-614.06"/>
<polygon fill="black" stroke="black" points="971.85,-614.29 968.35,-604.29 964.85,-614.29 971.85,-614.29"/>
</g>
<!-- Números Aleatórios\n0 / 2 -->
<g id="node29" class="node">
<title>Números Aleatórios\n0 / 2</title>
<path fill="orange" stroke="red" stroke-width="3" d="M1174.23,-601.52C1174.23,-601.52 1040.48,-601.52 1040.48,-601.52 1034.48,-601.52 1028.48,-595.52 1028.48,-589.52 1028.48,-589.52 1028.48,-571.02 1028.48,-571.02 1028.48,-565.02 1034.48,-559.02 1040.48,-559.02 1040.48,-559.02 1174.23,-559.02 1174.23,-559.02 1180.23,-559.02 1186.23,-565.02 1186.23,-571.02 1186.23,-571.02 1186.23,-589.52 1186.23,-589.52 1186.23,-595.52 1180.23,-601.52 1174.23,-601.52"/>
<text text-anchor="middle" x="1107.35" y="-584.22" font-family="Times,serif" font-size="14.00">Números Aleatórios</text>
<text text-anchor="middle" x="1107.35" y="-566.97" font-family="Times,serif" font-size="14.00">0 / 2</text>
</g>
<!-- Seleção Básica\n0 / 10&#45;&gt;Números Aleatórios\n0 / 2 -->
<g id="edge30" class="edge">
<title>Seleção Básica\n0 / 10&#45;&gt;Números Aleatórios\n0 / 2</title>
<path fill="none" stroke="black" d="M1007.81,-636.05C1023.5,-627.42 1041.71,-617.4 1058.24,-608.3"/>
<polygon fill="black" stroke="black" points="1059.88,-611.39 1066.95,-603.51 1056.5,-605.26 1059.88,-611.39"/>
</g>
<!-- Técnicas de seleção I\n0 / 8 -->
<g id="node25" class="node">
<title>Técnicas de seleção I\n0 / 8</title>
<ellipse fill="cyan" stroke="yellow" stroke-width="3" cx="1113.35" cy="-492.97" rx="116.85" ry="30.05"/>
<text text-anchor="middle" x="1113.35" y="-496.92" font-family="Times,serif" font-size="14.00">Técnicas de seleção I</text>
<text text-anchor="middle" x="1113.35" y="-479.67" font-family="Times,serif" font-size="14.00">0 / 8</text>
</g>
<!-- Funções I\n0 / 5&#45;&gt;Técnicas de seleção I\n0 / 8 -->
<g id="edge24" class="edge">
<title>Funções I\n0 / 5&#45;&gt;Técnicas de seleção I\n0 / 8</title>
<path fill="none" stroke="black" d="M1005.32,-557.52C1020.75,-548.45 1039.03,-537.69 1056.13,-527.63"/>
<polygon fill="black" stroke="black" points="1057.88,-530.66 1064.72,-522.58 1054.33,-524.63 1057.88,-530.66"/>
</g>
<!-- Funções II\n0 / 4 -->
<g id="node27" class="node">
<title>Funções II\n0 / 4</title>
<path fill="gold" stroke="red" stroke-width="3" d="M1326.48,-514.22C1326.48,-514.22 1260.23,-514.22 1260.23,-514.22 1254.23,-514.22 1248.23,-508.22 1248.23,-502.22 1248.23,-502.22 1248.23,-483.72 1248.23,-483.72 1248.23,-477.72 1254.23,-471.72 1260.23,-471.72 1260.23,-471.72 1326.48,-471.72 1326.48,-471.72 1332.48,-471.72 1338.48,-477.72 1338.48,-483.72 1338.48,-483.72 1338.48,-502.22 1338.48,-502.22 1338.48,-508.22 1332.48,-514.22 1326.48,-514.22"/>
<text text-anchor="middle" x="1293.35" y="-496.92" font-family="Times,serif" font-size="14.00">Funções II</text>
<text text-anchor="middle" x="1293.35" y="-479.67" font-family="Times,serif" font-size="14.00">0 / 4</text>
</g>
<!-- Funções I\n0 / 5&#45;&gt;Funções II\n0 / 4 -->
<g id="edge27" class="edge">
<title>Funções I\n0 / 5&#45;&gt;Funções II\n0 / 4</title>
<path fill="none" stroke="black" d="M1012.1,-561.2C1014.54,-560.42 1016.97,-559.68 1019.35,-559.02 1114.84,-532.59 1145.55,-554.93 1239.35,-523.02 1241.73,-522.21 1244.12,-521.31 1246.52,-520.33"/>
<polygon fill="black" stroke="black" points="1247.84,-523.57 1255.52,-516.27 1244.97,-517.19 1247.84,-523.57"/>
</g>
<!-- Array Iniciante\n0 / 4 -->
<g id="node30" class="node">
<title>Array Iniciante\n0 / 4</title>
<path fill="tomato" stroke="red" stroke-width="3" d="M875.6,-418.11C875.6,-418.11 777.1,-418.11 777.1,-418.11 771.1,-418.11 765.1,-412.11 765.1,-406.11 765.1,-406.11 765.1,-387.61 765.1,-387.61 765.1,-381.61 771.1,-375.61 777.1,-375.61 777.1,-375.61 875.6,-375.61 875.6,-375.61 881.6,-375.61 887.6,-381.61 887.6,-387.61 887.6,-387.61 887.6,-406.11 887.6,-406.11 887.6,-412.11 881.6,-418.11 875.6,-418.11"/>
<text text-anchor="middle" x="826.35" y="-400.81" font-family="Times,serif" font-size="14.00">Array Iniciante</text>
<text text-anchor="middle" x="826.35" y="-383.56" font-family="Times,serif" font-size="14.00">0 / 4</text>
</g>
<!-- Funções I\n0 / 5&#45;&gt;Array Iniciante\n0 / 4 -->
<g id="edge32" class="edge">
<title>Funções I\n0 / 5&#45;&gt;Array Iniciante\n0 / 4</title>
<path fill="none" stroke="black" d="M959.24,-557.76C946.64,-528.6 924.04,-478.4 911.35,-462.92 899.95,-449 885.02,-436.31 870.86,-425.91"/>
<polygon fill="black" stroke="black" points="873.12,-423.22 862.94,-420.29 869.07,-428.93 873.12,-423.22"/>
</g>
<!-- Structs\n0 / 2 -->
<g id="node36" class="node">
<title>Structs\n0 / 2</title>
<path fill="tomato" stroke="red" stroke-width="3" d="M962.6,-418.11C962.6,-418.11 918.1,-418.11 918.1,-418.11 912.1,-418.11 906.1,-412.11 906.1,-406.11 906.1,-406.11 906.1,-387.61 906.1,-387.61 906.1,-381.61 912.1,-375.61 918.1,-375.61 918.1,-375.61 962.6,-375.61 962.6,-375.61 968.6,-375.61 974.6,-381.61 974.6,-387.61 974.6,-387.61 974.6,-406.11 974.6,-406.11 974.6,-412.11 968.6,-418.11 962.6,-418.11"/>
<text text-anchor="middle" x="940.35" y="-400.81" font-family="Times,serif" font-size="14.00">Structs</text>
<text text-anchor="middle" x="940.35" y="-383.56" font-family="Times,serif" font-size="14.00">0 / 2</text>
</g>
<!-- Funções I\n0 / 5&#45;&gt;Structs\n0 / 2 -->
<g id="edge40" class="edge">
<title>Funções I\n0 / 5&#45;&gt;Structs\n0 / 2</title>
<path fill="none" stroke="black" d="M965.03,-557.75C960.17,-526.24 951.08,-467.33 945.39,-430.48"/>
<polygon fill="black" stroke="black" points="948.89,-430.2 943.9,-420.85 941.97,-431.27 948.89,-430.2"/>
</g>
<!-- Técnicas de seleção II\n0 / 10 -->
<g id="node26" class="node">
<title>Técnicas de seleção II\n0 / 10</title>
<ellipse fill="cyan" stroke="red" stroke-width="3" cx="1113.35" cy="-396.86" rx="120.56" ry="30.05"/>
<text text-anchor="middle" x="1113.35" y="-400.81" font-family="Times,serif" font-size="14.00">Técnicas de seleção II</text>
<text text-anchor="middle" x="1113.35" y="-383.56" font-family="Times,serif" font-size="14.00">0 / 10</text>
</g>
<!-- Técnicas de seleção I\n0 / 8&#45;&gt;Técnicas de seleção II\n0 / 10 -->
<g id="edge25" class="edge">
<title>Técnicas de seleção I\n0 / 8&#45;&gt;Técnicas de seleção II\n0 / 10</title>
<path fill="none" stroke="black" d="M1113.35,-461.68C1113.35,-454.62 1113.35,-446.99 1113.35,-439.55"/>
<polygon fill="black" stroke="black" points="1116.85,-439.61 1113.35,-429.61 1109.85,-439.61 1116.85,-439.61"/>
</g>
<!-- Ponteiros\n0 / 1 -->
<g id="node34" class="node">
<title>Ponteiros\n0 / 1</title>
<path fill="tomato" stroke="red" stroke-width="3" d="M1323.1,-418.11C1323.1,-418.11 1263.6,-418.11 1263.6,-418.11 1257.6,-418.11 1251.6,-412.11 1251.6,-406.11 1251.6,-406.11 1251.6,-387.61 1251.6,-387.61 1251.6,-381.61 1257.6,-375.61 1263.6,-375.61 1263.6,-375.61 1323.1,-375.61 1323.1,-375.61 1329.1,-375.61 1335.1,-381.61 1335.1,-387.61 1335.1,-387.61 1335.1,-406.11 1335.1,-406.11 1335.1,-412.11 1329.1,-418.11 1323.1,-418.11"/>
<text text-anchor="middle" x="1293.35" y="-400.81" font-family="Times,serif" font-size="14.00">Ponteiros</text>
<text text-anchor="middle" x="1293.35" y="-383.56" font-family="Times,serif" font-size="14.00">0 / 1</text>
</g>
<!-- Funções II\n0 / 4&#45;&gt;Ponteiros\n0 / 1 -->
<g id="edge39" class="edge">
<title>Funções II\n0 / 4&#45;&gt;Ponteiros\n0 / 1</title>
<path fill="none" stroke="black" d="M1293.35,-470.61C1293.35,-458.91 1293.35,-444.14 1293.35,-430.97"/>
<polygon fill="black" stroke="black" points="1296.85,-430.97 1293.35,-420.97 1289.85,-430.97 1296.85,-430.97"/>
</g>
<!-- for\n0 / 8&#45;&gt;Array Iniciante\n0 / 4 -->
<g id="edge31" class="edge">
<title>for\n0 / 8&#45;&gt;Array Iniciante\n0 / 4</title>
<path fill="none" stroke="black" d="M477.07,-470.24C480.97,-467.44 485.13,-464.88 489.35,-462.92 574.2,-423.5 681.74,-407.97 752.22,-401.84"/>
<polygon fill="black" stroke="black" points="752.44,-405.34 762.12,-401.03 751.87,-398.36 752.44,-405.34"/>
</g>
<!-- Array avançado\n0 / 4 -->
<g id="node31" class="node">
<title>Array avançado\n0 / 4</title>
<path fill="tomato" stroke="red" stroke-width="3" d="M817.85,-330.81C817.85,-330.81 714.85,-330.81 714.85,-330.81 708.85,-330.81 702.85,-324.81 702.85,-318.81 702.85,-318.81 702.85,-300.31 702.85,-300.31 702.85,-294.31 708.85,-288.31 714.85,-288.31 714.85,-288.31 817.85,-288.31 817.85,-288.31 823.85,-288.31 829.85,-294.31 829.85,-300.31 829.85,-300.31 829.85,-318.81 829.85,-318.81 829.85,-324.81 823.85,-330.81 817.85,-330.81"/>
<text text-anchor="middle" x="766.35" y="-313.51" font-family="Times,serif" font-size="14.00">Array avançado</text>
<text text-anchor="middle" x="766.35" y="-296.26" font-family="Times,serif" font-size="14.00">0 / 4</text>
</g>
<!-- Array Iniciante\n0 / 4&#45;&gt;Array avançado\n0 / 4 -->
<g id="edge33" class="edge">
<title>Array Iniciante\n0 / 4&#45;&gt;Array avançado\n0 / 4</title>
<path fill="none" stroke="black" d="M811.21,-374.34C804.18,-364.34 795.69,-352.26 787.99,-341.32"/>
<polygon fill="black" stroke="black" points="790.98,-339.48 782.36,-333.32 785.25,-343.51 790.98,-339.48"/>
</g>
<!-- Matrizes\n0 / 2 -->
<g id="node37" class="node">
<title>Matrizes\n0 / 2</title>
<path fill="tomato" stroke="red" stroke-width="3" d="M914.85,-330.81C914.85,-330.81 859.85,-330.81 859.85,-330.81 853.85,-330.81 847.85,-324.81 847.85,-318.81 847.85,-318.81 847.85,-300.31 847.85,-300.31 847.85,-294.31 853.85,-288.31 859.85,-288.31 859.85,-288.31 914.85,-288.31 914.85,-288.31 920.85,-288.31 926.85,-294.31 926.85,-300.31 926.85,-300.31 926.85,-318.81 926.85,-318.81 926.85,-324.81 920.85,-330.81 914.85,-330.81"/>
<text text-anchor="middle" x="887.35" y="-313.51" font-family="Times,serif" font-size="14.00">Matrizes</text>
<text text-anchor="middle" x="887.35" y="-296.26" font-family="Times,serif" font-size="14.00">0 / 2</text>
</g>
<!-- Array Iniciante\n0 / 4&#45;&gt;Matrizes\n0 / 2 -->
<g id="edge41" class="edge">
<title>Array Iniciante\n0 / 4&#45;&gt;Matrizes\n0 / 2</title>
<path fill="none" stroke="black" d="M841.75,-374.34C848.9,-364.34 857.53,-352.26 865.36,-341.32"/>
<polygon fill="black" stroke="black" points="868.12,-343.48 871.09,-333.31 862.42,-339.41 868.12,-343.48"/>
</g>
<!-- Structs Advanced\n0 / 2 -->
<g id="node39" class="node">
<title>Structs Advanced\n0 / 2</title>
<path fill="tomato" stroke="red" stroke-width="3" d="M1075.35,-330.81C1075.35,-330.81 957.35,-330.81 957.35,-330.81 951.35,-330.81 945.35,-324.81 945.35,-318.81 945.35,-318.81 945.35,-300.31 945.35,-300.31 945.35,-294.31 951.35,-288.31 957.35,-288.31 957.35,-288.31 1075.35,-288.31 1075.35,-288.31 1081.35,-288.31 1087.35,-294.31 1087.35,-300.31 1087.35,-300.31 1087.35,-318.81 1087.35,-318.81 1087.35,-324.81 1081.35,-330.81 1075.35,-330.81"/>
<text text-anchor="middle" x="1016.35" y="-313.51" font-family="Times,serif" font-size="14.00">Structs Advanced</text>
<text text-anchor="middle" x="1016.35" y="-296.26" font-family="Times,serif" font-size="14.00">0 / 2</text>
</g>
<!-- Array Iniciante\n0 / 4&#45;&gt;Structs Advanced\n0 / 2 -->
<g id="edge45" class="edge">
<title>Array Iniciante\n0 / 4&#45;&gt;Structs Advanced\n0 / 2</title>
<path fill="none" stroke="black" d="M874.79,-374.12C900.03,-362.79 931.09,-348.84 957.68,-336.91"/>
<polygon fill="black" stroke="black" points="958.94,-340.18 966.62,-332.89 956.07,-333.79 958.94,-340.18"/>
</g>
<!-- Array avançado\n0 / 4&#45;&gt;Strings I\n0 / 5 -->
<g id="edge35" class="edge">
<title>Array avançado\n0 / 4&#45;&gt;Strings I\n0 / 5</title>
<path fill="none" stroke="black" d="M741.12,-286.82C728.9,-276.29 714.06,-263.5 700.9,-252.17"/>
<polygon fill="black" stroke="black" points="703.55,-249.83 693.69,-245.95 698.98,-255.13 703.55,-249.83"/>
</g>
<!-- Array Expert\n0 / 6 -->
<g id="node32" class="node">
<title>Array Expert\n0 / 6</title>
<ellipse fill="tomato" stroke="red" stroke-width="3" cx="801.35" cy="-222.26" rx="77.07" ry="30.05"/>
<text text-anchor="middle" x="801.35" y="-226.21" font-family="Times,serif" font-size="14.00">Array Expert</text>
<text text-anchor="middle" x="801.35" y="-208.96" font-family="Times,serif" font-size="14.00">0 / 6</text>
</g>
<!-- Array avançado\n0 / 4&#45;&gt;Array Expert\n0 / 6 -->
<g id="edge34" class="edge">
<title>Array avançado\n0 / 4&#45;&gt;Array Expert\n0 / 6</title>
<path fill="none" stroke="black" d="M775.19,-287.04C778.11,-279.9 781.48,-271.7 784.79,-263.62"/>
<polygon fill="black" stroke="black" points="787.96,-265.14 788.51,-254.55 781.48,-262.48 787.96,-265.14"/>
</g>
<!-- Strings Expert\n0 / 4 -->
<g id="node35" class="node">
<title>Strings Expert\n0 / 4</title>
<ellipse fill="tomato" stroke="red" stroke-width="3" cx="1151.35" cy="-30.05" rx="86.09" ry="30.05"/>
<text text-anchor="middle" x="1151.35" y="-34" font-family="Times,serif" font-size="14.00">Strings Expert</text>
<text text-anchor="middle" x="1151.35" y="-16.75" font-family="Times,serif" font-size="14.00">0 / 4</text>
</g>
<!-- Strings II\n0 / 3&#45;&gt;Strings Expert\n0 / 4 -->
<g id="edge38" class="edge">
<title>Strings II\n0 / 3&#45;&gt;Strings Expert\n0 / 4</title>
<path fill="none" stroke="black" d="M1151.35,-94.86C1151.35,-87.81 1151.35,-80.18 1151.35,-72.73"/>
<polygon fill="black" stroke="black" points="1154.85,-72.8 1151.35,-62.8 1147.85,-72.8 1154.85,-72.8"/>
</g>
<!-- Ponteiros\n0 / 1&#45;&gt;Strings II\n0 / 3 -->
<g id="edge37" class="edge">
<title>Ponteiros\n0 / 1&#45;&gt;Strings II\n0 / 3</title>
<path fill="none" stroke="black" d="M1281.97,-374.33C1258.12,-329.19 1202.58,-224.1 1172.17,-166.55"/>
<polygon fill="black" stroke="black" points="1175.27,-164.93 1167.51,-157.72 1169.09,-168.2 1175.27,-164.93"/>
</g>
<!-- Ponteiros\n0 / 1&#45;&gt;Structs Advanced\n0 / 2 -->
<g id="edge44" class="edge">
<title>Ponteiros\n0 / 1&#45;&gt;Structs Advanced\n0 / 2</title>
<path fill="none" stroke="black" d="M1259.03,-374.24C1253.89,-371.5 1248.57,-368.92 1243.35,-366.81 1197.39,-348.21 1143.63,-334.55 1099.96,-325.36"/>
<polygon fill="black" stroke="black" points="1100.78,-321.95 1090.28,-323.36 1099.37,-328.81 1100.78,-321.95"/>
</g>
<!-- Structs\n0 / 2&#45;&gt;Structs Advanced\n0 / 2 -->
<g id="edge46" class="edge">
<title>Structs\n0 / 2&#45;&gt;Structs Advanced\n0 / 2</title>
<path fill="none" stroke="black" d="M959.53,-374.34C968.62,-364.14 979.64,-351.77 989.54,-340.66"/>
<polygon fill="black" stroke="black" points="992.14,-343.01 996.18,-333.21 986.91,-338.35 992.14,-343.01"/>
</g>
<!-- Técnicas em matrizes\n0 / 1 -->
<g id="node38" class="node">
<title>Técnicas em matrizes\n0 / 1</title>
<ellipse fill="tomato" stroke="red" stroke-width="3" cx="1016.35" cy="-222.26" rx="120.03" ry="30.05"/>
<text text-anchor="middle" x="1016.35" y="-226.21" font-family="Times,serif" font-size="14.00">Técnicas em matrizes</text>
<text text-anchor="middle" x="1016.35" y="-208.96" font-family="Times,serif" font-size="14.00">0 / 1</text>
</g>
<!-- Matrizes\n0 / 2&#45;&gt;Técnicas em matrizes\n0 / 1 -->
<g id="edge42" class="edge">
<title>Matrizes\n0 / 2&#45;&gt;Técnicas em matrizes\n0 / 1</title>
<path fill="none" stroke="black" d="M920.24,-286.82C933.47,-278.07 949.05,-267.77 963.77,-258.03"/>
<polygon fill="black" stroke="black" points="965.62,-261 972.03,-252.57 961.76,-255.17 965.62,-261"/>
</g>
<!-- Structs Advanced\n0 / 2&#45;&gt;Técnicas em matrizes\n0 / 1 -->
<g id="edge43" class="edge">
<title>Structs Advanced\n0 / 2&#45;&gt;Técnicas em matrizes\n0 / 1</title>
<path fill="none" stroke="black" d="M1016.35,-287.04C1016.35,-280.35 1016.35,-272.74 1016.35,-265.16"/>
<polygon fill="black" stroke="black" points="1019.85,-265.31 1016.35,-255.31 1012.85,-265.31 1019.85,-265.31"/>
</g>
</g>
</svg>
