<?xml version="1.0" encoding="UTF-8" standalone="no"?>
<!DOCTYPE svg PUBLIC "-//W3C//DTD SVG 1.1//EN"
 "http://www.w3.org/Graphics/SVG/1.1/DTD/svg11.dtd">
<!-- Generated by graphviz version 11.0.0 (0)
 -->
<!-- Title: diag Pages: 1 -->
<svg width="1200pt" height="1162pt"
 viewBox="0.00 0.00 1199.94 1162.04" xmlns="http://www.w3.org/2000/svg" xmlns:xlink="http://www.w3.org/1999/xlink">
<g id="graph0" class="graph" transform="scale(1 1) rotate(0) translate(4 1158.04)">
<title>diag</title>
<polygon fill="white" stroke="none" points="-4,4 -4,-1158.04 1195.94,-1158.04 1195.94,4 -4,4"/>
<!-- O que são linguagens de programação?\n4 / 4 -->
<g id="node1" class="node">
<title>O que são linguagens de programação?\n4 / 4</title>
<ellipse fill="pink" stroke="green" stroke-width="3" cx="419.12" cy="-1051.99" rx="209.66" ry="30.05"/>
<text text-anchor="middle" x="419.12" y="-1055.94" font-family="Times,serif" font-size="14.00">O que são linguagens de programação?</text>
<text text-anchor="middle" x="419.12" y="-1038.69" font-family="Times,serif" font-size="14.00">4 / 4</text>
</g>
<!-- Uso do bash\n0 / 1 -->
<g id="node2" class="node">
<title>Uso do bash\n0 / 1</title>
<path fill="lightblue" stroke="red" stroke-width="3" d="M142,-977.13C142,-977.13 62.25,-977.13 62.25,-977.13 56.25,-977.13 50.25,-971.13 50.25,-965.13 50.25,-965.13 50.25,-946.63 50.25,-946.63 50.25,-940.63 56.25,-934.63 62.25,-934.63 62.25,-934.63 142,-934.63 142,-934.63 148,-934.63 154,-940.63 154,-946.63 154,-946.63 154,-965.13 154,-965.13 154,-971.13 148,-977.13 142,-977.13"/>
<text text-anchor="middle" x="102.12" y="-959.83" font-family="Times,serif" font-size="14.00">Uso do bash</text>
<text text-anchor="middle" x="102.12" y="-942.58" font-family="Times,serif" font-size="14.00">0 / 1</text>
</g>
<!-- O que são linguagens de programação?\n4 / 4&#45;&gt;Uso do bash\n0 / 1 -->
<g id="edge1" class="edge">
<title>O que são linguagens de programação?\n4 / 4&#45;&gt;Uso do bash\n0 / 1</title>
<path fill="none" stroke="black" d="M300.42,-1025.94C256.69,-1015.38 207.12,-1001.83 163.12,-985.94 160.61,-985.03 158.06,-984.05 155.5,-983.03"/>
<polygon fill="black" stroke="black" points="156.97,-979.85 146.39,-979.17 154.24,-986.29 156.97,-979.85"/>
</g>
<!-- Makefile\n4 / 4 -->
<g id="node4" class="node">
<title>Makefile\n4 / 4</title>
<path fill="lightblue" stroke="green" stroke-width="3" d="M236.5,-977.13C236.5,-977.13 183.75,-977.13 183.75,-977.13 177.75,-977.13 171.75,-971.13 171.75,-965.13 171.75,-965.13 171.75,-946.63 171.75,-946.63 171.75,-940.63 177.75,-934.63 183.75,-934.63 183.75,-934.63 236.5,-934.63 236.5,-934.63 242.5,-934.63 248.5,-940.63 248.5,-946.63 248.5,-946.63 248.5,-965.13 248.5,-965.13 248.5,-971.13 242.5,-977.13 236.5,-977.13"/>
<text text-anchor="middle" x="210.12" y="-959.83" font-family="Times,serif" font-size="14.00">Makefile</text>
<text text-anchor="middle" x="210.12" y="-942.58" font-family="Times,serif" font-size="14.00">4 / 4</text>
</g>
<!-- O que são linguagens de programação?\n4 / 4&#45;&gt;Makefile\n4 / 4 -->
<g id="edge3" class="edge">
<title>O que são linguagens de programação?\n4 / 4&#45;&gt;Makefile\n4 / 4</title>
<path fill="none" stroke="black" d="M341.85,-1022.67C314.94,-1012.05 284.81,-999.3 258.12,-985.94 256.85,-985.3 255.57,-984.64 254.28,-983.96"/>
<polygon fill="black" stroke="black" points="256.13,-980.99 245.69,-979.24 252.76,-987.12 256.13,-980.99"/>
</g>
<!-- TKO &#45; Ferramenta de Testes\n1 / 1 -->
<g id="node7" class="node">
<title>TKO &#45; Ferramenta de Testes\n1 / 1</title>
<ellipse fill="lightblue" stroke="green" stroke-width="3" cx="419.12" cy="-955.88" rx="152.38" ry="30.05"/>
<text text-anchor="middle" x="419.12" y="-959.83" font-family="Times,serif" font-size="14.00">TKO &#45; Ferramenta de Testes</text>
<text text-anchor="middle" x="419.12" y="-942.58" font-family="Times,serif" font-size="14.00">1 / 1</text>
</g>
<!-- O que são linguagens de programação?\n4 / 4&#45;&gt;TKO &#45; Ferramenta de Testes\n1 / 1 -->
<g id="edge5" class="edge">
<title>O que são linguagens de programação?\n4 / 4&#45;&gt;TKO &#45; Ferramenta de Testes\n1 / 1</title>
<path fill="none" stroke="black" d="M419.12,-1020.7C419.12,-1013.64 419.12,-1006.01 419.12,-998.57"/>
<polygon fill="black" stroke="black" points="422.63,-998.63 419.13,-988.63 415.63,-998.63 422.63,-998.63"/>
</g>
<!-- Primeiro código\n6 / 6 -->
<g id="node9" class="node">
<title>Primeiro código\n6 / 6</title>
<ellipse fill="pink" stroke="green" stroke-width="3" cx="681.12" cy="-955.88" rx="91.39" ry="30.05"/>
<text text-anchor="middle" x="681.12" y="-959.83" font-family="Times,serif" font-size="14.00">Primeiro código</text>
<text text-anchor="middle" x="681.12" y="-942.58" font-family="Times,serif" font-size="14.00">6 / 6</text>
</g>
<!-- O que são linguagens de programação?\n4 / 4&#45;&gt;Primeiro código\n6 / 6 -->
<g id="edge7" class="edge">
<title>O que são linguagens de programação?\n4 / 4&#45;&gt;Primeiro código\n6 / 6</title>
<path fill="none" stroke="black" d="M497.73,-1022.75C532.84,-1010.15 573.96,-995.38 608.35,-983.02"/>
<polygon fill="black" stroke="black" points="609.14,-986.46 617.37,-979.78 606.77,-979.87 609.14,-986.46"/>
</g>
<!-- Debugando\n0 / 1 -->
<g id="node23" class="node">
<title>Debugando\n0 / 1</title>
<path fill="cyan" stroke="red" stroke-width="3" d="M875.62,-977.13C875.62,-977.13 802.62,-977.13 802.62,-977.13 796.62,-977.13 790.62,-971.13 790.62,-965.13 790.62,-965.13 790.62,-946.63 790.62,-946.63 790.62,-940.63 796.62,-934.63 802.62,-934.63 802.62,-934.63 875.62,-934.63 875.62,-934.63 881.62,-934.63 887.62,-940.63 887.62,-946.63 887.62,-946.63 887.62,-965.13 887.62,-965.13 887.62,-971.13 881.62,-977.13 875.62,-977.13"/>
<text text-anchor="middle" x="839.12" y="-959.83" font-family="Times,serif" font-size="14.00">Debugando</text>
<text text-anchor="middle" x="839.12" y="-942.58" font-family="Times,serif" font-size="14.00">0 / 1</text>
</g>
<!-- O que são linguagens de programação?\n4 / 4&#45;&gt;Debugando\n0 / 1 -->
<g id="edge23" class="edge">
<title>O que são linguagens de programação?\n4 / 4&#45;&gt;Debugando\n0 / 1</title>
<path fill="none" stroke="black" d="M581.53,-1031.95C644.83,-1021.91 717.35,-1007.15 781.12,-985.94 783.79,-985.05 786.49,-984.06 789.18,-983"/>
<polygon fill="black" stroke="black" points="790.3,-986.33 798.12,-979.18 787.55,-979.89 790.3,-986.33"/>
</g>
<!-- Configuração do Ambiente\n2 / 2 -->
<g id="node3" class="node">
<title>Configuração do Ambiente\n2 / 2</title>
<path fill="lightblue" stroke="white" d="M192.25,-881.03C192.25,-881.03 12,-881.03 12,-881.03 6,-881.03 0,-875.03 0,-869.03 0,-869.03 0,-850.53 0,-850.53 0,-844.53 6,-838.53 12,-838.53 12,-838.53 192.25,-838.53 192.25,-838.53 198.25,-838.53 204.25,-844.53 204.25,-850.53 204.25,-850.53 204.25,-869.03 204.25,-869.03 204.25,-875.03 198.25,-881.03 192.25,-881.03"/>
<text text-anchor="middle" x="102.12" y="-863.73" font-family="Times,serif" font-size="14.00">Configuração do Ambiente</text>
<text text-anchor="middle" x="102.12" y="-846.48" font-family="Times,serif" font-size="14.00">2 / 2</text>
</g>
<!-- Uso do bash\n0 / 1&#45;&gt;Configuração do Ambiente\n2 / 2 -->
<g id="edge2" class="edge">
<title>Uso do bash\n0 / 1&#45;&gt;Configuração do Ambiente\n2 / 2</title>
<path fill="none" stroke="black" stroke-dasharray="1,5" d="M102.12,-933.53C102.12,-921.45 102.12,-906.11 102.12,-892.64"/>
<polygon fill="black" stroke="black" points="105.63,-892.92 102.13,-882.92 98.63,-892.92 105.63,-892.92"/>
</g>
<!-- While\n0 / 4 -->
<g id="node5" class="node">
<title>While\n0 / 4</title>
<ellipse fill="yellow" stroke="white" cx="493.12" cy="-571.47" rx="39.95" ry="30.05"/>
<text text-anchor="middle" x="493.12" y="-575.42" font-family="Times,serif" font-size="14.00">While</text>
<text text-anchor="middle" x="493.12" y="-558.17" font-family="Times,serif" font-size="14.00">0 / 4</text>
</g>
<!-- Macros: include, define, if, ifdef, endif\n0 / 2 -->
<g id="node6" class="node">
<title>Macros: include, define, if, ifdef, endif\n0 / 2</title>
<path fill="lightblue" stroke="white" d="M720.75,-496.61C720.75,-496.61 459.5,-496.61 459.5,-496.61 453.5,-496.61 447.5,-490.61 447.5,-484.61 447.5,-484.61 447.5,-466.11 447.5,-466.11 447.5,-460.11 453.5,-454.11 459.5,-454.11 459.5,-454.11 720.75,-454.11 720.75,-454.11 726.75,-454.11 732.75,-460.11 732.75,-466.11 732.75,-466.11 732.75,-484.61 732.75,-484.61 732.75,-490.61 726.75,-496.61 720.75,-496.61"/>
<text text-anchor="middle" x="590.12" y="-479.31" font-family="Times,serif" font-size="14.00">Macros: include, define, if, ifdef, endif</text>
<text text-anchor="middle" x="590.12" y="-462.06" font-family="Times,serif" font-size="14.00">0 / 2</text>
</g>
<!-- While\n0 / 4&#45;&gt;Macros: include, define, if, ifdef, endif\n0 / 2 -->
<g id="edge4" class="edge">
<title>While\n0 / 4&#45;&gt;Macros: include, define, if, ifdef, endif\n0 / 2</title>
<path fill="none" stroke="black" stroke-dasharray="1,5" d="M517.1,-547.21C530.42,-534.29 547.09,-518.12 561.14,-504.49"/>
<polygon fill="black" stroke="black" points="563.23,-507.33 567.97,-497.86 558.36,-502.31 563.23,-507.33"/>
</g>
<!-- Tratamento de erros de entrada fflush\n0 / 1 -->
<g id="node20" class="node">
<title>Tratamento de erros de entrada fflush\n0 / 1</title>
<path fill="lightgreen" stroke="white" d="M332.62,-496.61C332.62,-496.61 67.62,-496.61 67.62,-496.61 61.62,-496.61 55.62,-490.61 55.62,-484.61 55.62,-484.61 55.62,-466.11 55.62,-466.11 55.62,-460.11 61.62,-454.11 67.62,-454.11 67.62,-454.11 332.62,-454.11 332.62,-454.11 338.62,-454.11 344.62,-460.11 344.62,-466.11 344.62,-466.11 344.62,-484.61 344.62,-484.61 344.62,-490.61 338.62,-496.61 332.62,-496.61"/>
<text text-anchor="middle" x="200.12" y="-479.31" font-family="Times,serif" font-size="14.00">Tratamento de erros de entrada fflush</text>
<text text-anchor="middle" x="200.12" y="-462.06" font-family="Times,serif" font-size="14.00">0 / 1</text>
</g>
<!-- While\n0 / 4&#45;&gt;Tratamento de erros de entrada fflush\n0 / 1 -->
<g id="edge18" class="edge">
<title>While\n0 / 4&#45;&gt;Tratamento de erros de entrada fflush\n0 / 1</title>
<path fill="none" stroke="black" stroke-dasharray="1,5" d="M456.61,-558.74C411.41,-544.22 333.28,-519.13 275.1,-500.45"/>
<polygon fill="black" stroke="black" points="276.52,-497.22 265.92,-497.5 274.37,-503.89 276.52,-497.22"/>
</g>
<!-- for\n0 / 8 -->
<g id="node28" class="node">
<title>for\n0 / 8</title>
<ellipse fill="yellow" stroke="white" cx="396.12" cy="-475.36" rx="33.59" ry="30.05"/>
<text text-anchor="middle" x="396.12" y="-479.31" font-family="Times,serif" font-size="14.00">for</text>
<text text-anchor="middle" x="396.12" y="-462.06" font-family="Times,serif" font-size="14.00">0 / 8</text>
</g>
<!-- While\n0 / 4&#45;&gt;for\n0 / 8 -->
<g id="edge29" class="edge">
<title>While\n0 / 4&#45;&gt;for\n0 / 8</title>
<path fill="none" stroke="black" stroke-dasharray="1,5" d="M469.15,-547.21C456.32,-534.77 440.4,-519.32 426.69,-506.02"/>
<polygon fill="black" stroke="black" points="429.2,-503.57 419.58,-499.12 424.32,-508.6 429.2,-503.57"/>
</g>
<!-- Operações Básicas\n0 / 3 -->
<g id="node16" class="node">
<title>Operações Básicas\n0 / 3</title>
<ellipse fill="pink" stroke="red" stroke-width="3" cx="373.12" cy="-859.78" rx="105.71" ry="30.05"/>
<text text-anchor="middle" x="373.12" y="-863.73" font-family="Times,serif" font-size="14.00">Operações Básicas</text>
<text text-anchor="middle" x="373.12" y="-846.48" font-family="Times,serif" font-size="14.00">0 / 3</text>
</g>
<!-- TKO &#45; Ferramenta de Testes\n1 / 1&#45;&gt;Operações Básicas\n0 / 3 -->
<g id="edge14" class="edge">
<title>TKO &#45; Ferramenta de Testes\n1 / 1&#45;&gt;Operações Básicas\n0 / 3</title>
<path fill="none" stroke="black" d="M404.32,-924.59C400.66,-917.12 396.7,-909 392.85,-901.13"/>
<polygon fill="black" stroke="black" points="396.11,-899.82 388.57,-892.38 389.82,-902.9 396.11,-899.82"/>
</g>
<!-- Início -->
<g id="node8" class="node">
<title>Início</title>
<path fill="lightgrey" stroke="black" d="M434.62,-1154.04C434.62,-1154.04 403.62,-1154.04 403.62,-1154.04 397.62,-1154.04 391.62,-1148.04 391.62,-1142.04 391.62,-1142.04 391.62,-1130.04 391.62,-1130.04 391.62,-1124.04 397.62,-1118.04 403.62,-1118.04 403.62,-1118.04 434.62,-1118.04 434.62,-1118.04 440.62,-1118.04 446.62,-1124.04 446.62,-1130.04 446.62,-1130.04 446.62,-1142.04 446.62,-1142.04 446.62,-1148.04 440.62,-1154.04 434.62,-1154.04"/>
<text text-anchor="middle" x="419.12" y="-1131.37" font-family="Times,serif" font-size="14.00">Início</text>
</g>
<!-- Início&#45;&gt;O que são linguagens de programação?\n4 / 4 -->
<g id="edge6" class="edge">
<title>Início&#45;&gt;O que são linguagens de programação?\n4 / 4</title>
<path fill="none" stroke="black" d="M419.12,-1117.64C419.12,-1110.86 419.12,-1102.78 419.12,-1094.66"/>
<polygon fill="black" stroke="black" points="422.63,-1094.81 419.13,-1084.81 415.63,-1094.81 422.63,-1094.81"/>
</g>
<!-- Clean Code &#45; Estilo\n0 / 1 -->
<g id="node12" class="node">
<title>Clean Code &#45; Estilo\n0 / 1</title>
<ellipse fill="pink" stroke="red" stroke-width="3" cx="799.12" cy="-763.68" rx="107.3" ry="30.05"/>
<text text-anchor="middle" x="799.12" y="-767.63" font-family="Times,serif" font-size="14.00">Clean Code &#45; Estilo</text>
<text text-anchor="middle" x="799.12" y="-750.38" font-family="Times,serif" font-size="14.00">0 / 1</text>
</g>
<!-- Primeiro código\n6 / 6&#45;&gt;Clean Code &#45; Estilo\n0 / 1 -->
<g id="edge9" class="edge">
<title>Primeiro código\n6 / 6&#45;&gt;Clean Code &#45; Estilo\n0 / 1</title>
<path fill="none" stroke="black" d="M749.18,-934.6C785.82,-922.16 825.62,-905.63 836.12,-889.83 853.31,-863.98 841.51,-829.96 826.82,-803.91"/>
<polygon fill="black" stroke="black" points="830.01,-802.44 821.88,-795.65 824.01,-806.03 830.01,-802.44"/>
</g>
<!-- Clean Code &#45; Indentação\n0 / 1 -->
<g id="node13" class="node">
<title>Clean Code &#45; Indentação\n0 / 1</title>
<ellipse fill="pink" stroke="red" stroke-width="3" cx="1058.12" cy="-763.68" rx="133.82" ry="30.05"/>
<text text-anchor="middle" x="1058.12" y="-767.63" font-family="Times,serif" font-size="14.00">Clean Code &#45; Indentação</text>
<text text-anchor="middle" x="1058.12" y="-750.38" font-family="Times,serif" font-size="14.00">0 / 1</text>
</g>
<!-- Primeiro código\n6 / 6&#45;&gt;Clean Code &#45; Indentação\n0 / 1 -->
<g id="edge10" class="edge">
<title>Primeiro código\n6 / 6&#45;&gt;Clean Code &#45; Indentação\n0 / 1</title>
<path fill="none" stroke="black" d="M746.44,-933.64C779.36,-922.1 819.54,-906.75 854.12,-889.83 908.37,-863.29 966.78,-826.55 1007.14,-799.74"/>
<polygon fill="black" stroke="black" points="1008.86,-802.8 1015.23,-794.33 1004.97,-796.98 1008.86,-802.8"/>
</g>
<!-- Manipulando tipos\n0 / 1 -->
<g id="node14" class="node">
<title>Manipulando tipos\n0 / 1</title>
<path fill="pink" stroke="red" stroke-width="3" d="M633.5,-881.03C633.5,-881.03 508.75,-881.03 508.75,-881.03 502.75,-881.03 496.75,-875.03 496.75,-869.03 496.75,-869.03 496.75,-850.53 496.75,-850.53 496.75,-844.53 502.75,-838.53 508.75,-838.53 508.75,-838.53 633.5,-838.53 633.5,-838.53 639.5,-838.53 645.5,-844.53 645.5,-850.53 645.5,-850.53 645.5,-869.03 645.5,-869.03 645.5,-875.03 639.5,-881.03 633.5,-881.03"/>
<text text-anchor="middle" x="571.12" y="-863.73" font-family="Times,serif" font-size="14.00">Manipulando tipos</text>
<text text-anchor="middle" x="571.12" y="-846.48" font-family="Times,serif" font-size="14.00">0 / 1</text>
</g>
<!-- Primeiro código\n6 / 6&#45;&gt;Manipulando tipos\n0 / 1 -->
<g id="edge11" class="edge">
<title>Primeiro código\n6 / 6&#45;&gt;Manipulando tipos\n0 / 1</title>
<path fill="none" stroke="black" d="M648.12,-926.65C634.52,-915.01 618.77,-901.54 605.07,-889.82"/>
<polygon fill="black" stroke="black" points="607.43,-887.24 597.56,-883.4 602.88,-892.56 607.43,-887.24"/>
</g>
<!-- Casting e Conversão\n0 / 3 -->
<g id="node15" class="node">
<title>Casting e Conversão\n0 / 3</title>
<path fill="pink" stroke="red" stroke-width="3" d="M814.62,-881.03C814.62,-881.03 675.62,-881.03 675.62,-881.03 669.62,-881.03 663.62,-875.03 663.62,-869.03 663.62,-869.03 663.62,-850.53 663.62,-850.53 663.62,-844.53 669.62,-838.53 675.62,-838.53 675.62,-838.53 814.62,-838.53 814.62,-838.53 820.62,-838.53 826.62,-844.53 826.62,-850.53 826.62,-850.53 826.62,-869.03 826.62,-869.03 826.62,-875.03 820.62,-881.03 814.62,-881.03"/>
<text text-anchor="middle" x="745.12" y="-863.73" font-family="Times,serif" font-size="14.00">Casting e Conversão</text>
<text text-anchor="middle" x="745.12" y="-846.48" font-family="Times,serif" font-size="14.00">0 / 3</text>
</g>
<!-- Primeiro código\n6 / 6&#45;&gt;Casting e Conversão\n0 / 3 -->
<g id="edge12" class="edge">
<title>Primeiro código\n6 / 6&#45;&gt;Casting e Conversão\n0 / 3</title>
<path fill="none" stroke="black" d="M701.38,-925.11C708.61,-914.47 716.77,-902.47 724.07,-891.74"/>
<polygon fill="black" stroke="black" points="726.9,-893.8 729.63,-883.56 721.11,-889.86 726.9,-893.8"/>
</g>
<!-- Primeiro código\n6 / 6&#45;&gt;Operações Básicas\n0 / 3 -->
<g id="edge13" class="edge">
<title>Primeiro código\n6 / 6&#45;&gt;Operações Básicas\n0 / 3</title>
<path fill="none" stroke="black" d="M613.91,-934.35C567.67,-920.22 505.93,-901.36 456.55,-886.27"/>
<polygon fill="black" stroke="black" points="457.6,-882.93 447.01,-883.36 455.55,-889.63 457.6,-882.93"/>
</g>
<!-- Entrada e Saída &#45; puts, printf, scanf\n0 / 4 -->
<g id="node10" class="node">
<title>Entrada e Saída &#45; puts, printf, scanf\n0 / 4</title>
<ellipse fill="lightgreen" stroke="white" cx="288.12" cy="-763.68" rx="191.63" ry="30.05"/>
<text text-anchor="middle" x="288.12" y="-767.63" font-family="Times,serif" font-size="14.00">Entrada e Saída &#45; puts, printf, scanf</text>
<text text-anchor="middle" x="288.12" y="-750.38" font-family="Times,serif" font-size="14.00">0 / 4</text>
</g>
<!-- Strings em C: Array de `char`\n0 / 1 -->
<g id="node11" class="node">
<title>Strings em C: Array de `char`\n0 / 1</title>
<ellipse fill="pink" stroke="white" cx="288.12" cy="-667.57" rx="162.46" ry="30.05"/>
<text text-anchor="middle" x="288.12" y="-671.52" font-family="Times,serif" font-size="14.00">Strings em C: Array de `char`</text>
<text text-anchor="middle" x="288.12" y="-654.27" font-family="Times,serif" font-size="14.00">0 / 1</text>
</g>
<!-- Entrada e Saída &#45; puts, printf, scanf\n0 / 4&#45;&gt;Strings em C: Array de `char`\n0 / 1 -->
<g id="edge8" class="edge">
<title>Entrada e Saída &#45; puts, printf, scanf\n0 / 4&#45;&gt;Strings em C: Array de `char`\n0 / 1</title>
<path fill="none" stroke="black" stroke-dasharray="1,5" d="M288.12,-733.16C288.12,-725.63 288.12,-717.39 288.12,-709.41"/>
<polygon fill="black" stroke="black" points="291.63,-709.5 288.13,-699.5 284.63,-709.5 291.63,-709.5"/>
</g>
<!-- Seleção Básica\n0 / 10 -->
<g id="node22" class="node">
<title>Seleção Básica\n0 / 10</title>
<ellipse fill="cyan" stroke="white" cx="799.12" cy="-667.57" rx="86.09" ry="30.05"/>
<text text-anchor="middle" x="799.12" y="-671.52" font-family="Times,serif" font-size="14.00">Seleção Básica</text>
<text text-anchor="middle" x="799.12" y="-654.27" font-family="Times,serif" font-size="14.00">0 / 10</text>
</g>
<!-- Entrada e Saída &#45; puts, printf, scanf\n0 / 4&#45;&gt;Seleção Básica\n0 / 10 -->
<g id="edge20" class="edge">
<title>Entrada e Saída &#45; puts, printf, scanf\n0 / 4&#45;&gt;Seleção Básica\n0 / 10</title>
<path fill="none" stroke="black" stroke-dasharray="1,5" d="M410.52,-740.14C503.68,-722.98 629.58,-699.79 712.51,-684.52"/>
<polygon fill="black" stroke="black" points="712.97,-688 722.17,-682.74 711.7,-681.11 712.97,-688"/>
</g>
<!-- Clean Code &#45; Estilo\n0 / 1&#45;&gt;Seleção Básica\n0 / 10 -->
<g id="edge21" class="edge">
<title>Clean Code &#45; Estilo\n0 / 1&#45;&gt;Seleção Básica\n0 / 10</title>
<path fill="none" stroke="black" stroke-dasharray="1,5" d="M799.12,-732.38C799.12,-725.03 799.12,-717.06 799.12,-709.31"/>
<polygon fill="black" stroke="black" points="802.63,-709.36 799.13,-699.36 795.63,-709.36 802.63,-709.36"/>
</g>
<!-- Clean Code &#45; Indentação\n0 / 1&#45;&gt;Seleção Básica\n0 / 10 -->
<g id="edge22" class="edge">
<title>Clean Code &#45; Indentação\n0 / 1&#45;&gt;Seleção Básica\n0 / 10</title>
<path fill="none" stroke="black" stroke-dasharray="1,5" d="M987.01,-736.84C950.07,-723.42 905.12,-707.08 868.45,-693.76"/>
<polygon fill="black" stroke="black" points="869.86,-690.55 859.27,-690.42 867.47,-697.13 869.86,-690.55"/>
</g>
<!-- Operações Básicas\n0 / 3&#45;&gt;Entrada e Saída &#45; puts, printf, scanf\n0 / 4 -->
<g id="edge16" class="edge">
<title>Operações Básicas\n0 / 3&#45;&gt;Entrada e Saída &#45; puts, printf, scanf\n0 / 4</title>
<path fill="none" stroke="black" stroke-dasharray="1,5" d="M346.46,-829.26C338.72,-820.69 330.15,-811.2 322.02,-802.2"/>
<polygon fill="black" stroke="black" points="324.72,-799.96 315.41,-794.89 319.52,-804.66 324.72,-799.96"/>
</g>
<!-- Biblioteca matemática\n0 / 2 -->
<g id="node17" class="node">
<title>Biblioteca matemática\n0 / 2</title>
<path fill="pink" stroke="white" d="M662,-784.93C662,-784.93 510.25,-784.93 510.25,-784.93 504.25,-784.93 498.25,-778.93 498.25,-772.93 498.25,-772.93 498.25,-754.43 498.25,-754.43 498.25,-748.43 504.25,-742.43 510.25,-742.43 510.25,-742.43 662,-742.43 662,-742.43 668,-742.43 674,-748.43 674,-754.43 674,-754.43 674,-772.93 674,-772.93 674,-778.93 668,-784.93 662,-784.93"/>
<text text-anchor="middle" x="586.12" y="-767.63" font-family="Times,serif" font-size="14.00">Biblioteca matemática</text>
<text text-anchor="middle" x="586.12" y="-750.38" font-family="Times,serif" font-size="14.00">0 / 2</text>
</g>
<!-- Operações Básicas\n0 / 3&#45;&gt;Biblioteca matemática\n0 / 2 -->
<g id="edge15" class="edge">
<title>Operações Básicas\n0 / 3&#45;&gt;Biblioteca matemática\n0 / 2</title>
<path fill="none" stroke="black" stroke-dasharray="1,5" d="M430.77,-833.31C461.18,-819.88 498.39,-803.44 528.77,-790.02"/>
<polygon fill="black" stroke="black" points="530.09,-793.26 537.82,-786.02 527.26,-786.86 530.09,-793.26"/>
</g>
<!-- Strings I\n0 / 5 -->
<g id="node18" class="node">
<title>Strings I\n0 / 5</title>
<ellipse fill="tomato" stroke="white" cx="525.12" cy="-187.05" rx="55.33" ry="30.05"/>
<text text-anchor="middle" x="525.12" y="-191" font-family="Times,serif" font-size="14.00">Strings I</text>
<text text-anchor="middle" x="525.12" y="-173.75" font-family="Times,serif" font-size="14.00">0 / 5</text>
</g>
<!-- Manipulando strings com `sprintf` e `sscanf`\n0 / 3 -->
<g id="node19" class="node">
<title>Manipulando strings com `sprintf` e `sscanf`\n0 / 3</title>
<path fill="lightgreen" stroke="white" d="M762.75,-121C762.75,-121 447.5,-121 447.5,-121 441.5,-121 435.5,-115 435.5,-109 435.5,-109 435.5,-90.5 435.5,-90.5 435.5,-84.5 441.5,-78.5 447.5,-78.5 447.5,-78.5 762.75,-78.5 762.75,-78.5 768.75,-78.5 774.75,-84.5 774.75,-90.5 774.75,-90.5 774.75,-109 774.75,-109 774.75,-115 768.75,-121 762.75,-121"/>
<text text-anchor="middle" x="605.12" y="-103.7" font-family="Times,serif" font-size="14.00">Manipulando strings com `sprintf` e `sscanf`</text>
<text text-anchor="middle" x="605.12" y="-86.45" font-family="Times,serif" font-size="14.00">0 / 3</text>
</g>
<!-- Strings I\n0 / 5&#45;&gt;Manipulando strings com `sprintf` e `sscanf`\n0 / 3 -->
<g id="edge17" class="edge">
<title>Strings I\n0 / 5&#45;&gt;Manipulando strings com `sprintf` e `sscanf`\n0 / 3</title>
<path fill="none" stroke="black" stroke-dasharray="1,5" d="M549.56,-160C558.59,-150.37 568.87,-139.41 578.11,-129.55"/>
<polygon fill="black" stroke="black" points="580.59,-132.03 584.87,-122.34 575.48,-127.24 580.59,-132.03"/>
</g>
<!-- IO: argc e argv\n0 / 1 -->
<g id="node21" class="node">
<title>IO: argc e argv\n0 / 1</title>
<path fill="lightgreen" stroke="white" d="M405.38,-121C405.38,-121 306.88,-121 306.88,-121 300.88,-121 294.88,-115 294.88,-109 294.88,-109 294.88,-90.5 294.88,-90.5 294.88,-84.5 300.88,-78.5 306.88,-78.5 306.88,-78.5 405.38,-78.5 405.38,-78.5 411.38,-78.5 417.38,-84.5 417.38,-90.5 417.38,-90.5 417.38,-109 417.38,-109 417.38,-115 411.38,-121 405.38,-121"/>
<text text-anchor="middle" x="356.12" y="-103.7" font-family="Times,serif" font-size="14.00">IO: argc e argv</text>
<text text-anchor="middle" x="356.12" y="-86.45" font-family="Times,serif" font-size="14.00">0 / 1</text>
</g>
<!-- Strings I\n0 / 5&#45;&gt;IO: argc e argv\n0 / 1 -->
<g id="edge19" class="edge">
<title>Strings I\n0 / 5&#45;&gt;IO: argc e argv\n0 / 1</title>
<path fill="none" stroke="black" stroke-dasharray="1,5" d="M485.07,-165.84C461.74,-154.06 432.08,-139.09 407.1,-126.48"/>
<polygon fill="black" stroke="black" points="408.92,-123.48 398.41,-122.09 405.76,-129.73 408.92,-123.48"/>
</g>
<!-- Strings II\n0 / 3 -->
<g id="node33" class="node">
<title>Strings II\n0 / 3</title>
<path fill="tomato" stroke="white" d="M981.88,-121C981.88,-121 922.38,-121 922.38,-121 916.38,-121 910.38,-115 910.38,-109 910.38,-109 910.38,-90.5 910.38,-90.5 910.38,-84.5 916.38,-78.5 922.38,-78.5 922.38,-78.5 981.88,-78.5 981.88,-78.5 987.88,-78.5 993.88,-84.5 993.88,-90.5 993.88,-90.5 993.88,-109 993.88,-109 993.88,-115 987.88,-121 981.88,-121"/>
<text text-anchor="middle" x="952.12" y="-103.7" font-family="Times,serif" font-size="14.00">Strings II</text>
<text text-anchor="middle" x="952.12" y="-86.45" font-family="Times,serif" font-size="14.00">0 / 3</text>
</g>
<!-- Strings I\n0 / 5&#45;&gt;Strings II\n0 / 3 -->
<g id="edge36" class="edge">
<title>Strings I\n0 / 5&#45;&gt;Strings II\n0 / 3</title>
<path fill="none" stroke="black" stroke-dasharray="1,5" d="M565.41,-166.06C573.45,-162.64 581.95,-159.42 590.12,-157 646.91,-140.23 812.59,-118.1 898.72,-107.27"/>
<polygon fill="black" stroke="black" points="899.08,-110.76 908.57,-106.04 898.21,-103.81 899.08,-110.76"/>
</g>
<!-- Seleção Básica\n0 / 10&#45;&gt;While\n0 / 4 -->
<g id="edge28" class="edge">
<title>Seleção Básica\n0 / 10&#45;&gt;While\n0 / 4</title>
<path fill="none" stroke="black" stroke-dasharray="1,5" d="M735.35,-646.96C677.42,-629.14 593.26,-603.26 540.93,-587.17"/>
<polygon fill="black" stroke="black" points="541.98,-583.83 531.39,-584.24 539.92,-590.52 541.98,-583.83"/>
</g>
<!-- Funções I\n0 / 5 -->
<g id="node24" class="node">
<title>Funções I\n0 / 5</title>
<ellipse fill="gold" stroke="white" cx="799.12" cy="-571.47" rx="60.1" ry="30.05"/>
<text text-anchor="middle" x="799.12" y="-575.42" font-family="Times,serif" font-size="14.00">Funções I</text>
<text text-anchor="middle" x="799.12" y="-558.17" font-family="Times,serif" font-size="14.00">0 / 5</text>
</g>
<!-- Seleção Básica\n0 / 10&#45;&gt;Funções I\n0 / 5 -->
<g id="edge26" class="edge">
<title>Seleção Básica\n0 / 10&#45;&gt;Funções I\n0 / 5</title>
<path fill="none" stroke="black" stroke-dasharray="1,5" d="M799.12,-637.06C799.12,-629.52 799.12,-621.29 799.12,-613.3"/>
<polygon fill="black" stroke="black" points="802.63,-613.39 799.13,-603.39 795.63,-613.39 802.63,-613.39"/>
</g>
<!-- Números Aleatórios\n0 / 2 -->
<g id="node29" class="node">
<title>Números Aleatórios\n0 / 2</title>
<ellipse fill="orange" stroke="white" cx="989.12" cy="-571.47" rx="111.55" ry="30.05"/>
<text text-anchor="middle" x="989.12" y="-575.42" font-family="Times,serif" font-size="14.00">Números Aleatórios</text>
<text text-anchor="middle" x="989.12" y="-558.17" font-family="Times,serif" font-size="14.00">0 / 2</text>
</g>
<!-- Seleção Básica\n0 / 10&#45;&gt;Números Aleatórios\n0 / 2 -->
<g id="edge30" class="edge">
<title>Seleção Básica\n0 / 10&#45;&gt;Números Aleatórios\n0 / 2</title>
<path fill="none" stroke="black" stroke-dasharray="1,5" d="M847.56,-642.58C871.63,-630.66 901,-616.11 926.74,-603.37"/>
<polygon fill="black" stroke="black" points="928.01,-606.64 935.42,-599.07 924.9,-600.37 928.01,-606.64"/>
</g>
<!-- Técnicas de seleção I\n0 / 8 -->
<g id="node25" class="node">
<title>Técnicas de seleção I\n0 / 8</title>
<path fill="cyan" stroke="white" d="M980.75,-496.61C980.75,-496.61 839.5,-496.61 839.5,-496.61 833.5,-496.61 827.5,-490.61 827.5,-484.61 827.5,-484.61 827.5,-466.11 827.5,-466.11 827.5,-460.11 833.5,-454.11 839.5,-454.11 839.5,-454.11 980.75,-454.11 980.75,-454.11 986.75,-454.11 992.75,-460.11 992.75,-466.11 992.75,-466.11 992.75,-484.61 992.75,-484.61 992.75,-490.61 986.75,-496.61 980.75,-496.61"/>
<text text-anchor="middle" x="910.12" y="-479.31" font-family="Times,serif" font-size="14.00">Técnicas de seleção I</text>
<text text-anchor="middle" x="910.12" y="-462.06" font-family="Times,serif" font-size="14.00">0 / 8</text>
</g>
<!-- Funções I\n0 / 5&#45;&gt;Técnicas de seleção I\n0 / 8 -->
<g id="edge24" class="edge">
<title>Funções I\n0 / 5&#45;&gt;Técnicas de seleção I\n0 / 8</title>
<path fill="none" stroke="black" stroke-dasharray="1,5" d="M829.16,-545C843.98,-532.44 861.88,-517.27 877.08,-504.38"/>
<polygon fill="black" stroke="black" points="879.15,-507.21 884.52,-498.07 874.63,-501.87 879.15,-507.21"/>
</g>
<!-- Funções II\n0 / 4 -->
<g id="node27" class="node">
<title>Funções II\n0 / 4</title>
<ellipse fill="gold" stroke="white" cx="1074.12" cy="-475.36" rx="63.82" ry="30.05"/>
<text text-anchor="middle" x="1074.12" y="-479.31" font-family="Times,serif" font-size="14.00">Funções II</text>
<text text-anchor="middle" x="1074.12" y="-462.06" font-family="Times,serif" font-size="14.00">0 / 4</text>
</g>
<!-- Funções I\n0 / 5&#45;&gt;Funções II\n0 / 4 -->
<g id="edge27" class="edge">
<title>Funções I\n0 / 5&#45;&gt;Funções II\n0 / 4</title>
<path fill="none" stroke="black" stroke-dasharray="1,5" d="M843.32,-550.81C851.49,-547.48 860.01,-544.2 868.12,-541.42 926.46,-521.41 943.65,-524.99 1002.12,-505.42 1006.93,-503.81 1011.87,-502.05 1016.81,-500.21"/>
<polygon fill="black" stroke="black" points="1018.06,-503.48 1026.15,-496.64 1015.56,-496.94 1018.06,-503.48"/>
</g>
<!-- Array Iniciante\n0 / 4 -->
<g id="node30" class="node">
<title>Array Iniciante\n0 / 4</title>
<ellipse fill="tomato" stroke="white" cx="607.12" cy="-379.26" rx="86.62" ry="30.05"/>
<text text-anchor="middle" x="607.12" y="-383.21" font-family="Times,serif" font-size="14.00">Array Iniciante</text>
<text text-anchor="middle" x="607.12" y="-365.96" font-family="Times,serif" font-size="14.00">0 / 4</text>
</g>
<!-- Funções I\n0 / 5&#45;&gt;Array Iniciante\n0 / 4 -->
<g id="edge32" class="edge">
<title>Funções I\n0 / 5&#45;&gt;Array Iniciante\n0 / 4</title>
<path fill="none" stroke="black" stroke-dasharray="1,5" d="M788.63,-541.64C776.44,-509.36 756.19,-459.69 742.12,-445.31 725.08,-427.9 702.44,-414.51 680.57,-404.55"/>
<polygon fill="black" stroke="black" points="682.22,-401.45 671.66,-400.67 679.43,-407.87 682.22,-401.45"/>
</g>
<!-- Structs\n0 / 2 -->
<g id="node36" class="node">
<title>Structs\n0 / 2</title>
<ellipse fill="tomato" stroke="white" cx="760.12" cy="-379.26" rx="48.44" ry="30.05"/>
<text text-anchor="middle" x="760.12" y="-383.21" font-family="Times,serif" font-size="14.00">Structs</text>
<text text-anchor="middle" x="760.12" y="-365.96" font-family="Times,serif" font-size="14.00">0 / 2</text>
</g>
<!-- Funções I\n0 / 5&#45;&gt;Structs\n0 / 2 -->
<g id="edge40" class="edge">
<title>Funções I\n0 / 5&#45;&gt;Structs\n0 / 2</title>
<path fill="none" stroke="black" stroke-dasharray="1,5" d="M793.81,-541.07C789.14,-515.67 782.03,-478 775.12,-445.31 773.43,-437.3 771.53,-428.75 769.67,-420.57"/>
<polygon fill="black" stroke="black" points="773.08,-419.79 767.42,-410.83 766.26,-421.36 773.08,-419.79"/>
</g>
<!-- Técnicas de seleção II\n0 / 10 -->
<g id="node26" class="node">
<title>Técnicas de seleção II\n0 / 10</title>
<path fill="cyan" stroke="white" d="M985.38,-400.51C985.38,-400.51 838.88,-400.51 838.88,-400.51 832.88,-400.51 826.88,-394.51 826.88,-388.51 826.88,-388.51 826.88,-370.01 826.88,-370.01 826.88,-364.01 832.88,-358.01 838.88,-358.01 838.88,-358.01 985.38,-358.01 985.38,-358.01 991.38,-358.01 997.38,-364.01 997.38,-370.01 997.38,-370.01 997.38,-388.51 997.38,-388.51 997.38,-394.51 991.38,-400.51 985.38,-400.51"/>
<text text-anchor="middle" x="912.12" y="-383.21" font-family="Times,serif" font-size="14.00">Técnicas de seleção II</text>
<text text-anchor="middle" x="912.12" y="-365.96" font-family="Times,serif" font-size="14.00">0 / 10</text>
</g>
<!-- Técnicas de seleção I\n0 / 8&#45;&gt;Técnicas de seleção II\n0 / 10 -->
<g id="edge25" class="edge">
<title>Técnicas de seleção I\n0 / 8&#45;&gt;Técnicas de seleção II\n0 / 10</title>
<path fill="none" stroke="black" stroke-dasharray="1,5" d="M910.56,-453.95C910.82,-441.82 911.15,-426.18 911.44,-412.43"/>
<polygon fill="black" stroke="black" points="914.94,-412.55 911.65,-402.48 907.94,-412.4 914.94,-412.55"/>
</g>
<!-- Ponteiros\n0 / 1 -->
<g id="node34" class="node">
<title>Ponteiros\n0 / 1</title>
<ellipse fill="tomato" stroke="white" cx="1074.12" cy="-379.26" rx="59.04" ry="30.05"/>
<text text-anchor="middle" x="1074.12" y="-383.21" font-family="Times,serif" font-size="14.00">Ponteiros</text>
<text text-anchor="middle" x="1074.12" y="-365.96" font-family="Times,serif" font-size="14.00">0 / 1</text>
</g>
<!-- Funções II\n0 / 4&#45;&gt;Ponteiros\n0 / 1 -->
<g id="edge39" class="edge">
<title>Funções II\n0 / 4&#45;&gt;Ponteiros\n0 / 1</title>
<path fill="none" stroke="black" stroke-dasharray="1,5" d="M1074.12,-444.85C1074.12,-437.31 1074.12,-429.08 1074.12,-421.09"/>
<polygon fill="black" stroke="black" points="1077.63,-421.19 1074.13,-411.19 1070.63,-421.19 1077.63,-421.19"/>
</g>
<!-- for\n0 / 8&#45;&gt;Array Iniciante\n0 / 4 -->
<g id="edge31" class="edge">
<title>for\n0 / 8&#45;&gt;Array Iniciante\n0 / 4</title>
<path fill="none" stroke="black" stroke-dasharray="1,5" d="M421.73,-455.23C427.01,-451.7 432.64,-448.21 438.12,-445.31 468.46,-429.28 503.64,-415.09 534.03,-404.09"/>
<polygon fill="black" stroke="black" points="534.89,-407.5 543.13,-400.85 532.54,-400.91 534.89,-407.5"/>
</g>
<!-- Array avançado\n0 / 4 -->
<g id="node31" class="node">
<title>Array avançado\n0 / 4</title>
<ellipse fill="tomato" stroke="white" cx="525.12" cy="-283.16" rx="89.8" ry="30.05"/>
<text text-anchor="middle" x="525.12" y="-287.11" font-family="Times,serif" font-size="14.00">Array avançado</text>
<text text-anchor="middle" x="525.12" y="-269.86" font-family="Times,serif" font-size="14.00">0 / 4</text>
</g>
<!-- Array Iniciante\n0 / 4&#45;&gt;Array avançado\n0 / 4 -->
<g id="edge33" class="edge">
<title>Array Iniciante\n0 / 4&#45;&gt;Array avançado\n0 / 4</title>
<path fill="none" stroke="black" stroke-dasharray="1,5" d="M582.52,-350.03C574.58,-340.91 565.65,-330.66 557.24,-321.01"/>
<polygon fill="black" stroke="black" points="559.91,-318.75 550.7,-313.51 554.64,-323.35 559.91,-318.75"/>
</g>
<!-- Matrizes\n0 / 2 -->
<g id="node37" class="node">
<title>Matrizes\n0 / 2</title>
<ellipse fill="tomato" stroke="white" cx="689.12" cy="-283.16" rx="55.86" ry="30.05"/>
<text text-anchor="middle" x="689.12" y="-287.11" font-family="Times,serif" font-size="14.00">Matrizes</text>
<text text-anchor="middle" x="689.12" y="-269.86" font-family="Times,serif" font-size="14.00">0 / 2</text>
</g>
<!-- Array Iniciante\n0 / 4&#45;&gt;Matrizes\n0 / 2 -->
<g id="edge41" class="edge">
<title>Array Iniciante\n0 / 4&#45;&gt;Matrizes\n0 / 2</title>
<path fill="none" stroke="black" stroke-dasharray="1,5" d="M631.73,-350.03C640.12,-340.4 649.61,-329.51 658.42,-319.39"/>
<polygon fill="black" stroke="black" points="661.02,-321.74 664.95,-311.9 655.74,-317.14 661.02,-321.74"/>
</g>
<!-- Structs Advanced\n0 / 2 -->
<g id="node39" class="node">
<title>Structs Advanced\n0 / 2</title>
<ellipse fill="tomato" stroke="white" cx="863.12" cy="-283.16" rx="100.41" ry="30.05"/>
<text text-anchor="middle" x="863.12" y="-287.11" font-family="Times,serif" font-size="14.00">Structs Advanced</text>
<text text-anchor="middle" x="863.12" y="-269.86" font-family="Times,serif" font-size="14.00">0 / 2</text>
</g>
<!-- Array Iniciante\n0 / 4&#45;&gt;Structs Advanced\n0 / 2 -->
<g id="edge45" class="edge">
<title>Array Iniciante\n0 / 4&#45;&gt;Structs Advanced\n0 / 2</title>
<path fill="none" stroke="black" stroke-dasharray="1,5" d="M665.54,-356.79C702.57,-343.17 750.78,-325.45 790.31,-310.92"/>
<polygon fill="black" stroke="black" points="791.34,-314.27 799.52,-307.54 788.93,-307.7 791.34,-314.27"/>
</g>
<!-- Array avançado\n0 / 4&#45;&gt;Strings I\n0 / 5 -->
<g id="edge35" class="edge">
<title>Array avançado\n0 / 4&#45;&gt;Strings I\n0 / 5</title>
<path fill="none" stroke="black" stroke-dasharray="1,5" d="M525.12,-252.64C525.12,-245.11 525.12,-236.87 525.12,-228.88"/>
<polygon fill="black" stroke="black" points="528.63,-228.98 525.13,-218.98 521.63,-228.98 528.63,-228.98"/>
</g>
<!-- Array Expert\n0 / 6 -->
<g id="node32" class="node">
<title>Array Expert\n0 / 6</title>
<path fill="tomato" stroke="white" d="M695.62,-208.3C695.62,-208.3 610.62,-208.3 610.62,-208.3 604.62,-208.3 598.62,-202.3 598.62,-196.3 598.62,-196.3 598.62,-177.8 598.62,-177.8 598.62,-171.8 604.62,-165.8 610.62,-165.8 610.62,-165.8 695.62,-165.8 695.62,-165.8 701.62,-165.8 707.62,-171.8 707.62,-177.8 707.62,-177.8 707.62,-196.3 707.62,-196.3 707.62,-202.3 701.62,-208.3 695.62,-208.3"/>
<text text-anchor="middle" x="653.12" y="-191" font-family="Times,serif" font-size="14.00">Array Expert</text>
<text text-anchor="middle" x="653.12" y="-173.75" font-family="Times,serif" font-size="14.00">0 / 6</text>
</g>
<!-- Array avançado\n0 / 4&#45;&gt;Array Expert\n0 / 6 -->
<g id="edge34" class="edge">
<title>Array avançado\n0 / 4&#45;&gt;Array Expert\n0 / 6</title>
<path fill="none" stroke="black" stroke-dasharray="1,5" d="M561.46,-255.44C578.55,-242.88 598.89,-227.92 616.07,-215.29"/>
<polygon fill="black" stroke="black" points="618.04,-218.19 624.03,-209.44 613.9,-212.55 618.04,-218.19"/>
</g>
<!-- Strings Expert\n0 / 4 -->
<g id="node35" class="node">
<title>Strings Expert\n0 / 4</title>
<path fill="tomato" stroke="white" d="M1001,-42.5C1001,-42.5 903.25,-42.5 903.25,-42.5 897.25,-42.5 891.25,-36.5 891.25,-30.5 891.25,-30.5 891.25,-12 891.25,-12 891.25,-6 897.25,0 903.25,0 903.25,0 1001,0 1001,0 1007,0 1013,-6 1013,-12 1013,-12 1013,-30.5 1013,-30.5 1013,-36.5 1007,-42.5 1001,-42.5"/>
<text text-anchor="middle" x="952.12" y="-25.2" font-family="Times,serif" font-size="14.00">Strings Expert</text>
<text text-anchor="middle" x="952.12" y="-7.95" font-family="Times,serif" font-size="14.00">0 / 4</text>
</g>
<!-- Strings II\n0 / 3&#45;&gt;Strings Expert\n0 / 4 -->
<g id="edge38" class="edge">
<title>Strings II\n0 / 3&#45;&gt;Strings Expert\n0 / 4</title>
<path fill="none" stroke="black" stroke-dasharray="1,5" d="M952.12,-78.25C952.12,-70.87 952.12,-62.37 952.12,-54.25"/>
<polygon fill="black" stroke="black" points="955.63,-54.32 952.13,-44.32 948.63,-54.32 955.63,-54.32"/>
</g>
<!-- Ponteiros\n0 / 1&#45;&gt;Strings II\n0 / 3 -->
<g id="edge37" class="edge">
<title>Ponteiros\n0 / 1&#45;&gt;Strings II\n0 / 3</title>
<path fill="none" stroke="black" stroke-dasharray="1,5" d="M1061.53,-349.61C1038.46,-297.14 989.62,-186.04 965.79,-131.82"/>
<polygon fill="black" stroke="black" points="969.07,-130.6 961.84,-122.85 962.66,-133.41 969.07,-130.6"/>
</g>
<!-- Ponteiros\n0 / 1&#45;&gt;Structs Advanced\n0 / 2 -->
<g id="edge44" class="edge">
<title>Ponteiros\n0 / 1&#45;&gt;Structs Advanced\n0 / 2</title>
<path fill="none" stroke="black" stroke-dasharray="1,5" d="M1030.41,-358.76C1001,-345.65 961.7,-328.12 928.58,-313.35"/>
<polygon fill="black" stroke="black" points="930.01,-310.15 919.45,-309.28 927.16,-316.55 930.01,-310.15"/>
</g>
<!-- Structs\n0 / 2&#45;&gt;Structs Advanced\n0 / 2 -->
<g id="edge46" class="edge">
<title>Structs\n0 / 2&#45;&gt;Structs Advanced\n0 / 2</title>
<path fill="none" stroke="black" stroke-dasharray="1,5" d="M786.92,-353.78C798.25,-343.43 811.68,-331.16 824.08,-319.83"/>
<polygon fill="black" stroke="black" points="826.32,-322.52 831.34,-313.2 821.6,-317.36 826.32,-322.52"/>
</g>
<!-- Técnicas em matrizes\n0 / 1 -->
<g id="node38" class="node">
<title>Técnicas em matrizes\n0 / 1</title>
<path fill="tomato" stroke="white" d="M910,-208.3C910,-208.3 764.25,-208.3 764.25,-208.3 758.25,-208.3 752.25,-202.3 752.25,-196.3 752.25,-196.3 752.25,-177.8 752.25,-177.8 752.25,-171.8 758.25,-165.8 764.25,-165.8 764.25,-165.8 910,-165.8 910,-165.8 916,-165.8 922,-171.8 922,-177.8 922,-177.8 922,-196.3 922,-196.3 922,-202.3 916,-208.3 910,-208.3"/>
<text text-anchor="middle" x="837.12" y="-191" font-family="Times,serif" font-size="14.00">Técnicas em matrizes</text>
<text text-anchor="middle" x="837.12" y="-173.75" font-family="Times,serif" font-size="14.00">0 / 1</text>
</g>
<!-- Matrizes\n0 / 2&#45;&gt;Técnicas em matrizes\n0 / 1 -->
<g id="edge42" class="edge">
<title>Matrizes\n0 / 2&#45;&gt;Técnicas em matrizes\n0 / 1</title>
<path fill="none" stroke="black" stroke-dasharray="1,5" d="M724.57,-259.62C745.73,-246.16 772.72,-229 794.96,-214.86"/>
<polygon fill="black" stroke="black" points="796.66,-217.93 803.22,-209.61 792.9,-212.02 796.66,-217.93"/>
</g>
<!-- Structs Advanced\n0 / 2&#45;&gt;Técnicas em matrizes\n0 / 1 -->
<g id="edge43" class="edge">
<title>Structs Advanced\n0 / 2&#45;&gt;Técnicas em matrizes\n0 / 1</title>
<path fill="none" stroke="black" stroke-dasharray="1,5" d="M855.04,-252.9C852.13,-242.36 848.83,-230.42 845.87,-219.69"/>
<polygon fill="black" stroke="black" points="849.25,-218.8 843.22,-210.1 842.5,-220.67 849.25,-218.8"/>
</g>
</g>
</svg>
